M48
; DRILL file {KiCad 8.0.4} date 2024-09-04T16:44:06-0500
; FORMAT={-:-/ absolute / inch / decimal}
; #@! TF.CreationDate,2024-09-04T16:44:06-05:00
; #@! TF.GenerationSoftware,Kicad,Pcbnew,8.0.4
; #@! TF.FileFunction,Plated,1,2,PTH
FMAT,2
INCH
; #@! TA.AperFunction,Plated,PTH,ViaDrill
T1C0.0256
; #@! TA.AperFunction,Plated,PTH,ComponentDrill
T2C0.0300
; #@! TA.AperFunction,Plated,PTH,ComponentDrill
T3C0.0311
; #@! TA.AperFunction,Plated,PTH,ComponentDrill
T4C0.0315
; #@! TA.AperFunction,Plated,PTH,ComponentDrill
T5C0.0394
; #@! TA.AperFunction,Plated,PTH,ComponentDrill
T6C0.0409
; #@! TA.AperFunction,Plated,PTH,ComponentDrill
T7C0.0433
; #@! TA.AperFunction,Plated,PTH,ComponentDrill
T8C0.0508
; #@! TA.AperFunction,Plated,PTH,ComponentDrill
T9C0.0520
; #@! TA.AperFunction,Plated,PTH,ComponentDrill
T10C0.0598
; #@! TA.AperFunction,Plated,PTH,ComponentDrill
T11C0.0787
%
G90
G05
T1
X4.7638Y-2.0866
X4.7638Y-2.4016
X6.811Y-2.2244
X6.9291Y-2.9921
X6.9291Y-3.189
X7.0669Y-2.3031
X7.3228Y-2.9331
X7.3228Y-3.1496
X7.3425Y-2.2244
X7.4606Y-2.3031
T2
X3.9823Y-4.7807
X4.0823Y-4.7807
X4.1823Y-4.7807
X4.2823Y-4.7807
X4.3823Y-4.7807
X4.4823Y-4.7807
T3
X7.6193Y-4.5865
X7.6193Y-4.6865
X7.6193Y-4.7865
T4
X4.1732Y-2.2047
X4.1732Y-2.2835
X4.1732Y-2.3622
X4.3898Y-2.2047
X4.3898Y-2.2835
X4.3898Y-2.3622
X4.626Y-2.2047
X4.626Y-2.2835
X4.626Y-2.3622
X6.5457Y-2.4803
X6.5457Y-2.7803
X6.6457Y-2.4803
X6.6457Y-2.7803
X6.6535Y-2.1654
X6.6535Y-2.2638
X6.7457Y-2.4803
X6.7457Y-2.7803
X6.8457Y-2.4803
X6.8457Y-2.7803
X6.9457Y-2.4803
X6.9457Y-2.7803
X7.0457Y-2.4803
X7.0457Y-2.7803
X7.1457Y-2.4803
X7.1457Y-2.7803
X7.2457Y-2.4803
X7.2457Y-2.7803
T5
X4.1742Y-2.5969
X4.1742Y-2.6969
X4.1742Y-2.7969
X4.1742Y-2.8969
X4.8819Y-2.1819
X4.8819Y-2.2819
X4.8819Y-2.3819
X6.4173Y-2.1638
X6.4173Y-2.2638
X6.4173Y-2.3638
X6.6339Y-4.685
X6.9882Y-4.685
T6
X5.1496Y-2.1079
X5.1496Y-2.2079
X5.1496Y-2.3079
X5.1496Y-2.4079
X5.1496Y-2.5079
X5.1496Y-2.6079
X5.1496Y-2.7079
X5.1496Y-2.8079
X5.1496Y-2.9079
X5.1496Y-3.0079
X5.1496Y-3.1079
X5.1496Y-3.2079
X5.1496Y-3.3079
X5.1496Y-3.4079
X5.1496Y-3.5079
X5.1496Y-3.6079
X5.1496Y-3.7079
X5.1496Y-3.8079
X5.1496Y-3.9079
X6.1496Y-2.1079
X6.1496Y-2.2079
X6.1496Y-2.3079
X6.1496Y-2.4079
X6.1496Y-2.5079
X6.1496Y-2.6079
X6.1496Y-2.7079
X6.1496Y-2.8079
X6.1496Y-2.9079
X6.1496Y-3.0079
X6.1496Y-3.1079
X6.1496Y-3.2079
X6.1496Y-3.3079
X6.1496Y-3.4079
X6.1496Y-3.5079
X6.1496Y-3.6079
X6.1496Y-3.7079
X6.1496Y-3.8079
X6.1496Y-3.9079
T7
X6.9228Y-4.3701
X7.3228Y-4.3701
T8
X7.0866Y-4.1339
T9
X6.8504Y-3.5748
X6.8504Y-4.0551
X7.3228Y-3.5748
X7.3228Y-4.0551
T10
X7.5787Y-2.1953
X7.5787Y-2.3953
X7.5787Y-2.5953
X7.5787Y-2.7953
X7.6575Y-3.6992
X7.6575Y-3.8992
T11
X4.4234Y-5.4134
X7.2581Y-5.4134
T5
G00X4.2323Y-3.4662
M15
G01X4.2323Y-3.545
M16
G05
G00X4.311Y-3.6906
M15
G01X4.3898Y-3.6906
M16
G05
G00X4.4685Y-3.4662
M15
G01X4.4685Y-3.545
M16
G05
M30
