%TF.GenerationSoftware,KiCad,Pcbnew,8.0.4*%
%TF.CreationDate,2024-09-04T16:44:11-05:00*%
%TF.ProjectId,PCB_CARRO_PROYECTO,5043425f-4341-4525-924f-5f50524f5945,rev?*%
%TF.SameCoordinates,Original*%
%TF.FileFunction,Copper,L2,Bot*%
%TF.FilePolarity,Positive*%
%FSLAX46Y46*%
G04 Gerber Fmt 4.6, Leading zero omitted, Abs format (unit mm)*
G04 Created by KiCad (PCBNEW 8.0.4) date 2024-09-04 16:44:11*
%MOMM*%
%LPD*%
G01*
G04 APERTURE LIST*
G04 Aperture macros list*
%AMRoundRect*
0 Rectangle with rounded corners*
0 $1 Rounding radius*
0 $2 $3 $4 $5 $6 $7 $8 $9 X,Y pos of 4 corners*
0 Add a 4 corners polygon primitive as box body*
4,1,4,$2,$3,$4,$5,$6,$7,$8,$9,$2,$3,0*
0 Add four circle primitives for the rounded corners*
1,1,$1+$1,$2,$3*
1,1,$1+$1,$4,$5*
1,1,$1+$1,$6,$7*
1,1,$1+$1,$8,$9*
0 Add four rect primitives between the rounded corners*
20,1,$1+$1,$2,$3,$4,$5,0*
20,1,$1+$1,$4,$5,$6,$7,0*
20,1,$1+$1,$6,$7,$8,$9,0*
20,1,$1+$1,$8,$9,$2,$3,0*%
G04 Aperture macros list end*
%TA.AperFunction,ComponentPad*%
%ADD10R,1.298000X1.298000*%
%TD*%
%TA.AperFunction,ComponentPad*%
%ADD11C,1.298000*%
%TD*%
%TA.AperFunction,ComponentPad*%
%ADD12R,1.560000X1.560000*%
%TD*%
%TA.AperFunction,ComponentPad*%
%ADD13C,1.560000*%
%TD*%
%TA.AperFunction,ComponentPad*%
%ADD14R,3.000000X3.000000*%
%TD*%
%TA.AperFunction,ComponentPad*%
%ADD15C,3.000000*%
%TD*%
%TA.AperFunction,ComponentPad*%
%ADD16R,3.500000X3.500000*%
%TD*%
%TA.AperFunction,ComponentPad*%
%ADD17RoundRect,0.750000X-0.750000X-1.000000X0.750000X-1.000000X0.750000X1.000000X-0.750000X1.000000X0*%
%TD*%
%TA.AperFunction,ComponentPad*%
%ADD18RoundRect,0.875000X-0.875000X-0.875000X0.875000X-0.875000X0.875000X0.875000X-0.875000X0.875000X0*%
%TD*%
%TA.AperFunction,ComponentPad*%
%ADD19R,1.600000X1.600000*%
%TD*%
%TA.AperFunction,ComponentPad*%
%ADD20C,1.600000*%
%TD*%
%TA.AperFunction,ComponentPad*%
%ADD21R,1.350000X1.350000*%
%TD*%
%TA.AperFunction,ComponentPad*%
%ADD22O,1.350000X1.350000*%
%TD*%
%TA.AperFunction,ComponentPad*%
%ADD23R,2.200000X2.200000*%
%TD*%
%TA.AperFunction,ComponentPad*%
%ADD24O,2.200000X2.200000*%
%TD*%
%TA.AperFunction,ComponentPad*%
%ADD25R,1.700000X1.700000*%
%TD*%
%TA.AperFunction,ComponentPad*%
%ADD26O,1.700000X1.700000*%
%TD*%
%TA.AperFunction,ComponentPad*%
%ADD27C,3.500000*%
%TD*%
%TA.AperFunction,ComponentPad*%
%ADD28C,1.524000*%
%TD*%
%TA.AperFunction,ComponentPad*%
%ADD29O,1.600000X1.600000*%
%TD*%
%TA.AperFunction,ComponentPad*%
%ADD30C,2.000000*%
%TD*%
%TA.AperFunction,ComponentPad*%
%ADD31R,1.980000X1.980000*%
%TD*%
%TA.AperFunction,ComponentPad*%
%ADD32C,1.980000*%
%TD*%
%TA.AperFunction,ComponentPad*%
%ADD33C,1.935000*%
%TD*%
%TA.AperFunction,ViaPad*%
%ADD34C,1.100000*%
%TD*%
%TA.AperFunction,ViaPad*%
%ADD35C,1.300000*%
%TD*%
%TA.AperFunction,Conductor*%
%ADD36C,1.000000*%
%TD*%
%TA.AperFunction,Conductor*%
%ADD37C,0.600000*%
%TD*%
G04 APERTURE END LIST*
D10*
%TO.P,Q1,1*%
%TO.N,GND*%
X193531000Y-121577500D03*
D11*
%TO.P,Q1,2*%
%TO.N,Net-(Q1-Pad2)*%
X193531000Y-119037500D03*
%TO.P,Q1,3*%
%TO.N,Net-(D1-A)*%
X193531000Y-116497500D03*
%TD*%
D12*
%TO.P,U1,J2-1,3V3*%
%TO.N,unconnected-(U1-3V3-PadJ2-1)*%
X156200000Y-99260000D03*
D13*
%TO.P,U1,J2-2,EN*%
%TO.N,unconnected-(U1-EN-PadJ2-2)*%
X156200000Y-96720000D03*
%TO.P,U1,J2-3,SENSOR_VP*%
%TO.N,unconnected-(U1-SENSOR_VP-PadJ2-3)*%
X156200000Y-94180000D03*
%TO.P,U1,J2-4,SENSOR_VN*%
%TO.N,unconnected-(U1-SENSOR_VN-PadJ2-4)*%
X156200000Y-91640000D03*
%TO.P,U1,J2-5,IO34*%
%TO.N,unconnected-(U1-IO34-PadJ2-5)*%
X156200000Y-89100000D03*
%TO.P,U1,J2-6,IO35*%
%TO.N,unconnected-(U1-IO35-PadJ2-6)*%
X156200000Y-86560000D03*
%TO.P,U1,J2-7,IO32*%
%TO.N,/B_1*%
X156200000Y-84020000D03*
%TO.P,U1,J2-8,IO33*%
%TO.N,/3a*%
X156200000Y-81480000D03*
%TO.P,U1,J2-9,IO25*%
%TO.N,/en_34*%
X156200000Y-78940000D03*
%TO.P,U1,J2-10,IO26*%
%TO.N,/4a*%
X156200000Y-76400000D03*
%TO.P,U1,J2-11,IO27*%
%TO.N,/en_12*%
X156200000Y-73860000D03*
%TO.P,U1,J2-12,IO14*%
%TO.N,/1a*%
X156200000Y-71320000D03*
%TO.P,U1,J2-13,IO12*%
%TO.N,/2a*%
X156200000Y-68780000D03*
%TO.P,U1,J2-14,GND1*%
%TO.N,GND*%
X156200000Y-66240000D03*
%TO.P,U1,J2-15,IO13*%
%TO.N,/servo_2*%
X156200000Y-63700000D03*
%TO.P,U1,J2-16,SD2*%
%TO.N,unconnected-(U1-SD2-PadJ2-16)*%
X156200000Y-61160000D03*
%TO.P,U1,J2-17,SD3*%
%TO.N,unconnected-(U1-SD3-PadJ2-17)*%
X156200000Y-58620000D03*
%TO.P,U1,J2-18,CMD*%
%TO.N,unconnected-(U1-CMD-PadJ2-18)*%
X156200000Y-56080000D03*
%TO.P,U1,J2-19,EXT_5V*%
%TO.N,+5V*%
X156200000Y-53540000D03*
%TO.P,U1,J3-1,GND3*%
%TO.N,GND*%
X130800000Y-99260000D03*
%TO.P,U1,J3-2,IO23*%
%TO.N,unconnected-(U1-IO23-PadJ3-2)*%
X130800000Y-96720000D03*
%TO.P,U1,J3-3,IO22*%
%TO.N,unconnected-(U1-IO22-PadJ3-3)*%
X130800000Y-94180000D03*
%TO.P,U1,J3-4,TXD0*%
%TO.N,unconnected-(U1-TXD0-PadJ3-4)*%
X130800000Y-91640000D03*
%TO.P,U1,J3-5,RXD0*%
%TO.N,unconnected-(U1-RXD0-PadJ3-5)*%
X130800000Y-89100000D03*
%TO.P,U1,J3-6,IO21*%
%TO.N,unconnected-(U1-IO21-PadJ3-6)*%
X130800000Y-86560000D03*
%TO.P,U1,J3-7,GND2*%
%TO.N,GND*%
X130800000Y-84020000D03*
%TO.P,U1,J3-8,IO19*%
%TO.N,unconnected-(U1-IO19-PadJ3-8)*%
X130800000Y-81480000D03*
%TO.P,U1,J3-9,IO18*%
%TO.N,/trig*%
X130800000Y-78940000D03*
%TO.P,U1,J3-10,IO5*%
%TO.N,/echo*%
X130800000Y-76400000D03*
%TO.P,U1,J3-11,IO17*%
%TO.N,unconnected-(U1-IO17-PadJ3-11)*%
X130800000Y-73860000D03*
%TO.P,U1,J3-12,IO16*%
%TO.N,unconnected-(U1-IO16-PadJ3-12)*%
X130800000Y-71320000D03*
%TO.P,U1,J3-13,IO4*%
%TO.N,/do_1*%
X130800000Y-68780000D03*
%TO.P,U1,J3-14,IO0*%
%TO.N,/do_2*%
X130800000Y-66240000D03*
%TO.P,U1,J3-15,IO2*%
%TO.N,/do_3*%
X130800000Y-63700000D03*
%TO.P,U1,J3-16,IO15*%
%TO.N,/servo_1*%
X130800000Y-61160000D03*
%TO.P,U1,J3-17,SD1*%
%TO.N,unconnected-(U1-SD1-PadJ3-17)*%
X130800000Y-58620000D03*
%TO.P,U1,J3-18,SD0*%
%TO.N,unconnected-(U1-SD0-PadJ3-18)*%
X130800000Y-56080000D03*
%TO.P,U1,J3-19,CLK*%
%TO.N,unconnected-(U1-CLK-PadJ3-19)*%
X130800000Y-53540000D03*
%TD*%
D14*
%TO.P,J5,1,Pin_1*%
%TO.N,/pot_4y*%
X192500000Y-71000000D03*
D15*
%TO.P,J5,2,Pin_2*%
%TO.N,/pot_3y*%
X192500000Y-65920000D03*
%TO.P,J5,3,Pin_3*%
%TO.N,/pot_2y*%
X192500000Y-60840000D03*
%TO.P,J5,4,Pin_4*%
%TO.N,/pot_1y*%
X192500000Y-55760000D03*
%TD*%
D16*
%TO.P,J4,1*%
%TO.N,VDC*%
X113500000Y-89042500D03*
D17*
%TO.P,J4,2*%
%TO.N,GND*%
X107500000Y-89042500D03*
D18*
%TO.P,J4,3*%
X110500000Y-93742500D03*
%TD*%
D19*
%TO.P,C1,1*%
%TO.N,+5V*%
X169000000Y-57500000D03*
D20*
%TO.P,C1,2*%
%TO.N,GND*%
X169000000Y-55000000D03*
%TD*%
D21*
%TO.P,J8,1,Pin_1*%
%TO.N,/do_2*%
X111500000Y-60000000D03*
D22*
%TO.P,J8,2,Pin_2*%
%TO.N,GND*%
X111500000Y-58000000D03*
%TO.P,J8,3,Pin_3*%
%TO.N,+5V*%
X111500000Y-56000000D03*
%TD*%
D23*
%TO.P,D1,1,K*%
%TO.N,+5V*%
X175840000Y-111000000D03*
D24*
%TO.P,D1,2,A*%
%TO.N,Net-(D1-A)*%
X186000000Y-111000000D03*
%TD*%
D25*
%TO.P,J1,1,Pin_1*%
%TO.N,/servo_1*%
X124000000Y-60500000D03*
D26*
%TO.P,J1,2,Pin_2*%
%TO.N,+5V*%
X124000000Y-57960000D03*
%TO.P,J1,3,Pin_3*%
%TO.N,GND*%
X124000000Y-55420000D03*
%TD*%
D25*
%TO.P,J2,1,Pin_1*%
%TO.N,/servo_2*%
X163000000Y-60040000D03*
D26*
%TO.P,J2,2,Pin_2*%
%TO.N,+5V*%
X163000000Y-57500000D03*
%TO.P,J2,3,Pin_3*%
%TO.N,GND*%
X163000000Y-54960000D03*
%TD*%
D14*
%TO.P,J6,1,Pin_1*%
%TO.N,Net-(J6-Pin_1)*%
X194500000Y-99040000D03*
D15*
%TO.P,J6,2,Pin_2*%
%TO.N,GND*%
X194500000Y-93960000D03*
%TD*%
D16*
%TO.P,BT1,1,+*%
%TO.N,+BATT*%
X112355000Y-137500000D03*
D27*
%TO.P,BT1,2,-*%
%TO.N,GND*%
X184355000Y-137500000D03*
%TD*%
D25*
%TO.P,J3,1,Pin_1*%
%TO.N,GND*%
X106025000Y-65960000D03*
D26*
%TO.P,J3,2,Pin_2*%
%TO.N,/echo*%
X106025000Y-68500000D03*
%TO.P,J3,3,Pin_3*%
%TO.N,/trig*%
X106025000Y-71040000D03*
%TO.P,J3,4,Pin_4*%
%TO.N,+5V*%
X106025000Y-73580000D03*
%TD*%
D28*
%TO.P,U3,1,VIN*%
%TO.N,VDC*%
X101150000Y-121430000D03*
%TO.P,U3,2,GND*%
%TO.N,GND*%
X103690000Y-121430000D03*
%TO.P,U3,3,GND*%
X106230000Y-121430000D03*
%TO.P,U3,4,BAT*%
%TO.N,+BATT*%
X108770000Y-121430000D03*
%TO.P,U3,5,GND*%
%TO.N,GND*%
X111310000Y-121430000D03*
%TO.P,U3,6,OUT-5V*%
%TO.N,+5V*%
X113850000Y-121430000D03*
%TD*%
D21*
%TO.P,J9,1,Pin_1*%
%TO.N,/do_3*%
X117500000Y-60000000D03*
D22*
%TO.P,J9,2,Pin_2*%
%TO.N,GND*%
X117500000Y-58000000D03*
%TO.P,J9,3,Pin_3*%
%TO.N,+5V*%
X117500000Y-56000000D03*
%TD*%
D19*
%TO.P,U2,1,EN1\u002C2*%
%TO.N,/en_12*%
X184040000Y-63000000D03*
D29*
%TO.P,U2,2,1A*%
%TO.N,/1a*%
X181500000Y-63000000D03*
%TO.P,U2,3,1Y*%
%TO.N,/pot_1y*%
X178960000Y-63000000D03*
%TO.P,U2,4,GND*%
%TO.N,GND*%
X176420000Y-63000000D03*
%TO.P,U2,5,GND*%
X173880000Y-63000000D03*
%TO.P,U2,6,2Y*%
%TO.N,/pot_2y*%
X171340000Y-63000000D03*
%TO.P,U2,7,2A*%
%TO.N,/2a*%
X168800000Y-63000000D03*
%TO.P,U2,8,VCC2*%
%TO.N,+5V*%
X166260000Y-63000000D03*
%TO.P,U2,9,EN3\u002C4*%
%TO.N,/en_34*%
X166260000Y-70620000D03*
%TO.P,U2,10,3A*%
%TO.N,/3a*%
X168800000Y-70620000D03*
%TO.P,U2,11,3Y*%
%TO.N,/pot_3y*%
X171340000Y-70620000D03*
%TO.P,U2,12,GND*%
%TO.N,GND*%
X173880000Y-70620000D03*
%TO.P,U2,13,GND*%
X176420000Y-70620000D03*
%TO.P,U2,14,4Y*%
%TO.N,/pot_4y*%
X178960000Y-70620000D03*
%TO.P,U2,15,4A*%
%TO.N,/4a*%
X181500000Y-70620000D03*
%TO.P,U2,16,VCC1*%
%TO.N,+5V*%
X184040000Y-70620000D03*
%TD*%
D30*
%TO.P,R1,1*%
%TO.N,/B_1*%
X168500000Y-119000000D03*
%TO.P,R1,2*%
%TO.N,Net-(Q1-Pad2)*%
X177500000Y-119000000D03*
%TD*%
D31*
%TO.P,K1,A1*%
%TO.N,+5V*%
X174000000Y-103000000D03*
D32*
%TO.P,K1,A2*%
%TO.N,Net-(D1-A)*%
X186000000Y-103000000D03*
D33*
%TO.P,K1,COM*%
%TO.N,Net-(J6-Pin_1)*%
X180000000Y-105000000D03*
D32*
%TO.P,K1,NC*%
%TO.N,unconnected-(K1-PadNC)*%
X174000000Y-90800000D03*
%TO.P,K1,NO*%
%TO.N,+5V*%
X186000000Y-90800000D03*
%TD*%
D21*
%TO.P,J7,1,Pin_1*%
%TO.N,/do_1*%
X106000000Y-60000000D03*
D22*
%TO.P,J7,2,Pin_2*%
%TO.N,GND*%
X106000000Y-58000000D03*
%TO.P,J7,3,Pin_3*%
%TO.N,+5V*%
X106000000Y-56000000D03*
%TD*%
D34*
%TO.N,GND*%
X179500000Y-58500000D03*
X121000000Y-61000000D03*
X189500000Y-58500000D03*
X121000000Y-53000000D03*
X176000000Y-81000000D03*
X176000000Y-76000000D03*
D35*
%TO.N,+5V*%
X186000000Y-80000000D03*
X173000000Y-56500000D03*
X186500000Y-56500000D03*
X186000000Y-74500000D03*
%TD*%
D36*
%TO.N,VDC*%
X115000000Y-107000000D02*
X115000000Y-90542500D01*
X101500000Y-107000000D02*
X115000000Y-107000000D01*
X101150000Y-107350000D02*
X101500000Y-107000000D01*
X115000000Y-90542500D02*
X113500000Y-89042500D01*
X101150000Y-121430000D02*
X101150000Y-107350000D01*
%TO.N,/pot_2y*%
X195500000Y-59500000D02*
X194160000Y-60840000D01*
X179500000Y-53000000D02*
X194000000Y-53000000D01*
X194000000Y-53000000D02*
X195500000Y-54500000D01*
X171340000Y-61160000D02*
X179500000Y-53000000D01*
X194160000Y-60840000D02*
X192500000Y-60840000D01*
X171340000Y-63000000D02*
X171340000Y-61160000D01*
X195500000Y-54500000D02*
X195500000Y-59500000D01*
%TO.N,/pot_1y*%
X178960000Y-61540000D02*
X178960000Y-63000000D01*
X185500000Y-55000000D02*
X178960000Y-61540000D01*
X191740000Y-55000000D02*
X185500000Y-55000000D01*
X192500000Y-55760000D02*
X191740000Y-55000000D01*
%TO.N,/pot_3y*%
X195500000Y-67500000D02*
X193920000Y-65920000D01*
X195500000Y-77000000D02*
X195500000Y-67500000D01*
X194500000Y-78000000D02*
X195500000Y-77000000D01*
X171340000Y-77340000D02*
X172000000Y-78000000D01*
X171340000Y-70620000D02*
X171340000Y-77340000D01*
X172000000Y-78000000D02*
X194500000Y-78000000D01*
X193920000Y-65920000D02*
X192500000Y-65920000D01*
%TO.N,/pot_4y*%
X179000000Y-76000000D02*
X193500000Y-76000000D01*
X193500000Y-76000000D02*
X193500000Y-72000000D01*
X179000000Y-74500000D02*
X179000000Y-76000000D01*
X178960000Y-70620000D02*
X178960000Y-74460000D01*
X178960000Y-74460000D02*
X179000000Y-74500000D01*
X193500000Y-72000000D02*
X192500000Y-71000000D01*
%TO.N,+BATT*%
X108770000Y-121430000D02*
X108770000Y-133915000D01*
X108770000Y-133915000D02*
X112355000Y-137500000D01*
%TO.N,+5V*%
X104580000Y-73580000D02*
X102500000Y-71500000D01*
X169000000Y-57500000D02*
X166500000Y-57500000D01*
X122000000Y-121000000D02*
X122000000Y-80500000D01*
X121570000Y-121430000D02*
X122000000Y-121000000D01*
X186500000Y-70500000D02*
X186380000Y-70620000D01*
X154666000Y-52006000D02*
X156200000Y-53540000D01*
X186500000Y-56500000D02*
X186500000Y-70500000D01*
X102500000Y-71500000D02*
X102500000Y-57500000D01*
X106500000Y-80500000D02*
X106025000Y-80025000D01*
X171000000Y-111000000D02*
X175840000Y-111000000D01*
X186000000Y-90800000D02*
X186000000Y-80000000D01*
X106025000Y-73580000D02*
X104580000Y-73580000D01*
X121460000Y-57960000D02*
X124000000Y-57960000D01*
X174000000Y-103100000D02*
X174000000Y-100500000D01*
X166260000Y-57740000D02*
X166500000Y-57500000D01*
X160160000Y-57500000D02*
X156200000Y-53540000D01*
X171000000Y-103000000D02*
X171000000Y-111000000D01*
X104000000Y-56000000D02*
X119500000Y-56000000D01*
X174000000Y-100500000D02*
X183600000Y-90900000D01*
X186000000Y-71000000D02*
X186380000Y-70620000D01*
X163000000Y-57500000D02*
X160160000Y-57500000D01*
X183600000Y-90900000D02*
X186000000Y-90900000D01*
X119500000Y-56000000D02*
X121460000Y-57960000D01*
X102500000Y-57500000D02*
X104000000Y-56000000D01*
X124000000Y-57960000D02*
X129954000Y-52006000D01*
X122000000Y-80500000D02*
X106500000Y-80500000D01*
X186000000Y-74500000D02*
X186000000Y-71000000D01*
X129954000Y-52006000D02*
X154666000Y-52006000D01*
X186380000Y-70620000D02*
X184040000Y-70620000D01*
X166500000Y-57500000D02*
X163000000Y-57500000D01*
X172000000Y-57500000D02*
X169000000Y-57500000D01*
X173000000Y-56500000D02*
X172000000Y-57500000D01*
X166260000Y-63000000D02*
X166260000Y-57740000D01*
X106025000Y-80025000D02*
X106025000Y-73580000D01*
X174000000Y-103000000D02*
X171000000Y-103000000D01*
X113850000Y-121430000D02*
X121570000Y-121430000D01*
D37*
%TO.N,Net-(D1-A)*%
X193531000Y-116497500D02*
X193531000Y-110631000D01*
X185400000Y-103100000D02*
X186000000Y-103100000D01*
X186000000Y-103100000D02*
X186000000Y-111000000D01*
X193531000Y-110631000D02*
X186000000Y-103100000D01*
%TO.N,/servo_1*%
X130140000Y-60500000D02*
X130800000Y-61160000D01*
X124000000Y-60500000D02*
X130140000Y-60500000D01*
%TO.N,/servo_2*%
X159860000Y-60040000D02*
X156200000Y-63700000D01*
X163000000Y-60040000D02*
X159860000Y-60040000D01*
%TO.N,/echo*%
X127900000Y-73500000D02*
X111025000Y-73500000D01*
X111025000Y-73500000D02*
X106025000Y-68500000D01*
X130800000Y-76400000D02*
X127900000Y-73500000D01*
%TO.N,/trig*%
X109985000Y-75000000D02*
X106025000Y-71040000D01*
X130800000Y-78940000D02*
X126860000Y-75000000D01*
X126860000Y-75000000D02*
X109985000Y-75000000D01*
D36*
%TO.N,VDC*%
X113500000Y-89042500D02*
X114042500Y-89042500D01*
%TO.N,/pot_3y*%
X193500000Y-66040000D02*
X193540000Y-66040000D01*
%TO.N,/pot_2y*%
X193500000Y-60960000D02*
X193540000Y-60960000D01*
%TO.N,Net-(J6-Pin_1)*%
X180000000Y-105000000D02*
X180000000Y-102500000D01*
X180000000Y-102500000D02*
X183460000Y-99040000D01*
X183460000Y-99040000D02*
X194500000Y-99040000D01*
D37*
%TO.N,/do_1*%
X107000000Y-60000000D02*
X116500000Y-69500000D01*
X130080000Y-69500000D02*
X130800000Y-68780000D01*
X106000000Y-60000000D02*
X107000000Y-60000000D01*
X116500000Y-69500000D02*
X130080000Y-69500000D01*
%TO.N,/do_2*%
X117426000Y-67926000D02*
X129114000Y-67926000D01*
X129114000Y-67926000D02*
X130800000Y-66240000D01*
X111500000Y-60000000D02*
X111500000Y-62000000D01*
X111500000Y-62000000D02*
X117426000Y-67926000D01*
%TO.N,/do_3*%
X117500000Y-64500000D02*
X117500000Y-60500000D01*
X130800000Y-63700000D02*
X130000000Y-64500000D01*
X130000000Y-64500000D02*
X117500000Y-64500000D01*
%TO.N,Net-(Q1-Pad2)*%
X193531000Y-119037500D02*
X177537500Y-119037500D01*
X177537500Y-119037500D02*
X177500000Y-119000000D01*
%TO.N,/B_1*%
X165500000Y-85500000D02*
X164020000Y-84020000D01*
X168500000Y-119000000D02*
X165500000Y-116000000D01*
X164020000Y-84020000D02*
X156200000Y-84020000D01*
X165500000Y-116000000D02*
X165500000Y-85500000D01*
%TO.N,/2a*%
X168800000Y-64200000D02*
X168800000Y-63000000D01*
X168000000Y-65000000D02*
X159980000Y-65000000D01*
X159980000Y-65000000D02*
X156200000Y-68780000D01*
X168000000Y-65000000D02*
X168800000Y-64200000D01*
%TO.N,/4a*%
X183620000Y-68500000D02*
X163000000Y-68500000D01*
X163000000Y-68500000D02*
X163000000Y-69600000D01*
X163000000Y-69600000D02*
X156200000Y-76400000D01*
X181500000Y-70620000D02*
X183620000Y-68500000D01*
%TO.N,/en_34*%
X166260000Y-70620000D02*
X164520000Y-70620000D01*
X164520000Y-70620000D02*
X156200000Y-78940000D01*
%TO.N,/en_12*%
X183500000Y-67500000D02*
X161000000Y-67500000D01*
X160500000Y-68000000D02*
X160500000Y-69560000D01*
X161000000Y-67500000D02*
X160500000Y-68000000D01*
X184040000Y-66960000D02*
X183500000Y-67500000D01*
X184040000Y-63000000D02*
X184040000Y-66960000D01*
X160500000Y-69560000D02*
X156200000Y-73860000D01*
%TO.N,/3a*%
X168800000Y-70620000D02*
X157940000Y-81480000D01*
X157940000Y-81480000D02*
X156200000Y-81480000D01*
%TO.N,/1a*%
X156200000Y-70800000D02*
X160500000Y-66500000D01*
X182500000Y-64000000D02*
X181500000Y-63000000D01*
X182500000Y-66500000D02*
X182500000Y-64000000D01*
X160500000Y-66500000D02*
X182500000Y-66500000D01*
X156200000Y-71320000D02*
X156200000Y-70800000D01*
%TD*%
%TA.AperFunction,Conductor*%
%TO.N,GND*%
G36*
X129663080Y-50520185D02*
G01*
X129708835Y-50572989D01*
X129718779Y-50642147D01*
X129689754Y-50705703D01*
X129634359Y-50742431D01*
X129454784Y-50800777D01*
X129454781Y-50800778D01*
X129272386Y-50893715D01*
X129106786Y-51014028D01*
X129106782Y-51014032D01*
X128962031Y-51158784D01*
X123833083Y-56287730D01*
X123771760Y-56321215D01*
X123755138Y-56323666D01*
X123741010Y-56324778D01*
X123741004Y-56324779D01*
X123488389Y-56385427D01*
X123248376Y-56484843D01*
X123026860Y-56620588D01*
X123016085Y-56629791D01*
X122952323Y-56658361D01*
X122935554Y-56659500D01*
X122050046Y-56659500D01*
X121983007Y-56639815D01*
X121962365Y-56623181D01*
X121171175Y-55831991D01*
X120347219Y-55008034D01*
X120181611Y-54887713D01*
X120064387Y-54827985D01*
X119999219Y-54794780D01*
X119890638Y-54759500D01*
X119890637Y-54759499D01*
X119804532Y-54731522D01*
X119649220Y-54706923D01*
X119602352Y-54699500D01*
X119602351Y-54699500D01*
X118228422Y-54699500D01*
X118169405Y-54684555D01*
X118094739Y-54644148D01*
X118094729Y-54644143D01*
X117863458Y-54564748D01*
X117682561Y-54534562D01*
X117622263Y-54524500D01*
X117377737Y-54524500D01*
X117329498Y-54532549D01*
X117136541Y-54564748D01*
X116905270Y-54644143D01*
X116905260Y-54644148D01*
X116830595Y-54684555D01*
X116771578Y-54699500D01*
X112228422Y-54699500D01*
X112169405Y-54684555D01*
X112094739Y-54644148D01*
X112094729Y-54644143D01*
X111863458Y-54564748D01*
X111682561Y-54534562D01*
X111622263Y-54524500D01*
X111377737Y-54524500D01*
X111329498Y-54532549D01*
X111136541Y-54564748D01*
X110905270Y-54644143D01*
X110905260Y-54644148D01*
X110830595Y-54684555D01*
X110771578Y-54699500D01*
X106728422Y-54699500D01*
X106669405Y-54684555D01*
X106594739Y-54644148D01*
X106594729Y-54644143D01*
X106363458Y-54564748D01*
X106182561Y-54534562D01*
X106122263Y-54524500D01*
X105877737Y-54524500D01*
X105829498Y-54532549D01*
X105636541Y-54564748D01*
X105405270Y-54644143D01*
X105405260Y-54644148D01*
X105330595Y-54684555D01*
X105271578Y-54699500D01*
X103897648Y-54699500D01*
X103873329Y-54703351D01*
X103695465Y-54731522D01*
X103500776Y-54794781D01*
X103435613Y-54827985D01*
X103318387Y-54887714D01*
X103318384Y-54887716D01*
X103152778Y-55008036D01*
X101508036Y-56652778D01*
X101508031Y-56652784D01*
X101387713Y-56818387D01*
X101387710Y-56818393D01*
X101373024Y-56847218D01*
X101373024Y-56847219D01*
X101294781Y-57000776D01*
X101277445Y-57054133D01*
X101231523Y-57195464D01*
X101224310Y-57241006D01*
X101199500Y-57397648D01*
X101199500Y-71602351D01*
X101231522Y-71804531D01*
X101231522Y-71804532D01*
X101231523Y-71804535D01*
X101258389Y-71887219D01*
X101294780Y-71999219D01*
X101313994Y-72036928D01*
X101387713Y-72181611D01*
X101508034Y-72347219D01*
X103732781Y-74571966D01*
X103898389Y-74692287D01*
X103953266Y-74720248D01*
X104080776Y-74785218D01*
X104080778Y-74785218D01*
X104080781Y-74785220D01*
X104171243Y-74814613D01*
X104275465Y-74848477D01*
X104477648Y-74880500D01*
X104600500Y-74880500D01*
X104667539Y-74900185D01*
X104713294Y-74952989D01*
X104724500Y-75004500D01*
X104724500Y-80127351D01*
X104756522Y-80329531D01*
X104781563Y-80406599D01*
X104781563Y-80406600D01*
X104819776Y-80524211D01*
X104819779Y-80524218D01*
X104819780Y-80524219D01*
X104831965Y-80548133D01*
X104912713Y-80706611D01*
X105033034Y-80872219D01*
X105033036Y-80872221D01*
X105652786Y-81491971D01*
X105807749Y-81604556D01*
X105818390Y-81612287D01*
X105934607Y-81671503D01*
X106000776Y-81705218D01*
X106000778Y-81705218D01*
X106000781Y-81705220D01*
X106070928Y-81728012D01*
X106195465Y-81768477D01*
X106296557Y-81784488D01*
X106397648Y-81800500D01*
X120575500Y-81800500D01*
X120642539Y-81820185D01*
X120688294Y-81872989D01*
X120699500Y-81924500D01*
X120699500Y-120005500D01*
X120679815Y-120072539D01*
X120627011Y-120118294D01*
X120575500Y-120129500D01*
X114753188Y-120129500D01*
X114688398Y-120111227D01*
X114561553Y-120033496D01*
X114561550Y-120033494D01*
X114334336Y-119939380D01*
X114298819Y-119930853D01*
X114095185Y-119881964D01*
X114095182Y-119881963D01*
X114095179Y-119881963D01*
X113850000Y-119862668D01*
X113604820Y-119881963D01*
X113604816Y-119881963D01*
X113604815Y-119881964D01*
X113485241Y-119910671D01*
X113365663Y-119939380D01*
X113138449Y-120033494D01*
X113138446Y-120033496D01*
X112928750Y-120161998D01*
X112928747Y-120161999D01*
X112741729Y-120321729D01*
X112581999Y-120508747D01*
X112581998Y-120508750D01*
X112453496Y-120718446D01*
X112453494Y-120718449D01*
X112359380Y-120945663D01*
X112301963Y-121184820D01*
X112282668Y-121430000D01*
X112301963Y-121675179D01*
X112301963Y-121675182D01*
X112301964Y-121675185D01*
X112343266Y-121847219D01*
X112359380Y-121914336D01*
X112453494Y-122141550D01*
X112453496Y-122141553D01*
X112581998Y-122351249D01*
X112581999Y-122351252D01*
X112582002Y-122351255D01*
X112741729Y-122538271D01*
X112855242Y-122635220D01*
X112928747Y-122698000D01*
X112928750Y-122698001D01*
X113138446Y-122826503D01*
X113138449Y-122826505D01*
X113365663Y-122920619D01*
X113365668Y-122920621D01*
X113604815Y-122978036D01*
X113850000Y-122997332D01*
X114095185Y-122978036D01*
X114334332Y-122920621D01*
X114447943Y-122873562D01*
X114561550Y-122826505D01*
X114561551Y-122826504D01*
X114561554Y-122826503D01*
X114688398Y-122748772D01*
X114753188Y-122730500D01*
X121672351Y-122730500D01*
X121672352Y-122730500D01*
X121874535Y-122698477D01*
X121971876Y-122666848D01*
X122069219Y-122635220D01*
X122172870Y-122582407D01*
X122251611Y-122542287D01*
X122417219Y-122421966D01*
X122837012Y-122002170D01*
X122837017Y-122002167D01*
X122847217Y-121991966D01*
X122847219Y-121991966D01*
X122991966Y-121847219D01*
X123073836Y-121734534D01*
X123112287Y-121681611D01*
X123193110Y-121522986D01*
X123205220Y-121499219D01*
X123268477Y-121304534D01*
X123300500Y-121102352D01*
X123300500Y-107500000D01*
X132500000Y-107500000D01*
X154500000Y-107500000D01*
X154500000Y-100510850D01*
X154503186Y-100500000D01*
X154500000Y-100500000D01*
X132500000Y-100500000D01*
X132500000Y-107500000D01*
X123300500Y-107500000D01*
X123300500Y-86560000D01*
X129214613Y-86560000D01*
X129234132Y-86808012D01*
X129292204Y-87049902D01*
X129292208Y-87049914D01*
X129387409Y-87279751D01*
X129517391Y-87491861D01*
X129517392Y-87491864D01*
X129517395Y-87491867D01*
X129678962Y-87681038D01*
X129742975Y-87735710D01*
X129781168Y-87794217D01*
X129781666Y-87864085D01*
X129744313Y-87923131D01*
X129742999Y-87924268D01*
X129678962Y-87978962D01*
X129517392Y-88168135D01*
X129517391Y-88168138D01*
X129387409Y-88380248D01*
X129292208Y-88610085D01*
X129292204Y-88610097D01*
X129234132Y-88851987D01*
X129214613Y-89100000D01*
X129234132Y-89348012D01*
X129292204Y-89589902D01*
X129292208Y-89589914D01*
X129387409Y-89819751D01*
X129517391Y-90031861D01*
X129517392Y-90031864D01*
X129517395Y-90031867D01*
X129678962Y-90221038D01*
X129742975Y-90275710D01*
X129781168Y-90334217D01*
X129781666Y-90404085D01*
X129744313Y-90463131D01*
X129742999Y-90464268D01*
X129678962Y-90518962D01*
X129517392Y-90708135D01*
X129517391Y-90708138D01*
X129387409Y-90920248D01*
X129292208Y-91150085D01*
X129292204Y-91150097D01*
X129234132Y-91391987D01*
X129214613Y-91640000D01*
X129234132Y-91888012D01*
X129292204Y-92129902D01*
X129292208Y-92129914D01*
X129387409Y-92359751D01*
X129517391Y-92571861D01*
X129517392Y-92571864D01*
X129517395Y-92571867D01*
X129678962Y-92761038D01*
X129742975Y-92815710D01*
X129781168Y-92874217D01*
X129781666Y-92944085D01*
X129744313Y-93003131D01*
X129742999Y-93004268D01*
X129678962Y-93058962D01*
X129517392Y-93248135D01*
X129517391Y-93248138D01*
X129387409Y-93460248D01*
X129292208Y-93690085D01*
X129292204Y-93690097D01*
X129234132Y-93931987D01*
X129214613Y-94180000D01*
X129234132Y-94428012D01*
X129292204Y-94669902D01*
X129292208Y-94669914D01*
X129387409Y-94899751D01*
X129517391Y-95111861D01*
X129517392Y-95111864D01*
X129517395Y-95111867D01*
X129678962Y-95301038D01*
X129742975Y-95355710D01*
X129781168Y-95414217D01*
X129781666Y-95484085D01*
X129744313Y-95543131D01*
X129742999Y-95544268D01*
X129678962Y-95598962D01*
X129517392Y-95788135D01*
X129517391Y-95788138D01*
X129387409Y-96000248D01*
X129292208Y-96230085D01*
X129292204Y-96230097D01*
X129234132Y-96471987D01*
X129214613Y-96720000D01*
X129234132Y-96968012D01*
X129292204Y-97209902D01*
X129292208Y-97209914D01*
X129387409Y-97439751D01*
X129517391Y-97651861D01*
X129517392Y-97651864D01*
X129534998Y-97672478D01*
X129678962Y-97841038D01*
X129726040Y-97881246D01*
X129868135Y-98002607D01*
X129868138Y-98002608D01*
X130080248Y-98132590D01*
X130161508Y-98166248D01*
X130310088Y-98227793D01*
X130551991Y-98285868D01*
X130800000Y-98305387D01*
X131048009Y-98285868D01*
X131289912Y-98227793D01*
X131519751Y-98132590D01*
X131731867Y-98002605D01*
X131921038Y-97841038D01*
X132082605Y-97651867D01*
X132212590Y-97439751D01*
X132307793Y-97209912D01*
X132365868Y-96968009D01*
X132385387Y-96720000D01*
X132365868Y-96471991D01*
X132307793Y-96230088D01*
X132212590Y-96000249D01*
X132212590Y-96000248D01*
X132082608Y-95788138D01*
X132082607Y-95788135D01*
X131921038Y-95598962D01*
X131857023Y-95544288D01*
X131818832Y-95485784D01*
X131818332Y-95415916D01*
X131855686Y-95356870D01*
X131856949Y-95355774D01*
X131921038Y-95301038D01*
X132082605Y-95111867D01*
X132212590Y-94899751D01*
X132307793Y-94669912D01*
X132365868Y-94428009D01*
X132385387Y-94180000D01*
X132365868Y-93931991D01*
X132307793Y-93690088D01*
X132212590Y-93460249D01*
X132212590Y-93460248D01*
X132082608Y-93248138D01*
X132082607Y-93248135D01*
X131921038Y-93058962D01*
X131857023Y-93004288D01*
X131818832Y-92945784D01*
X131818332Y-92875916D01*
X131855686Y-92816870D01*
X131856949Y-92815774D01*
X131921038Y-92761038D01*
X132082605Y-92571867D01*
X132212590Y-92359751D01*
X132307793Y-92129912D01*
X132365868Y-91888009D01*
X132385387Y-91640000D01*
X132365868Y-91391991D01*
X132307793Y-91150088D01*
X132212590Y-90920249D01*
X132212590Y-90920248D01*
X132082608Y-90708138D01*
X132082607Y-90708135D01*
X131921038Y-90518962D01*
X131857023Y-90464288D01*
X131818832Y-90405784D01*
X131818332Y-90335916D01*
X131855686Y-90276870D01*
X131856949Y-90275774D01*
X131921038Y-90221038D01*
X132082605Y-90031867D01*
X132212590Y-89819751D01*
X132307793Y-89589912D01*
X132365868Y-89348009D01*
X132385387Y-89100000D01*
X132365868Y-88851991D01*
X132307793Y-88610088D01*
X132212590Y-88380249D01*
X132212590Y-88380248D01*
X132082608Y-88168138D01*
X132082607Y-88168135D01*
X131921038Y-87978962D01*
X131857023Y-87924288D01*
X131818832Y-87865784D01*
X131818332Y-87795916D01*
X131855686Y-87736870D01*
X131856949Y-87735774D01*
X131921038Y-87681038D01*
X132082605Y-87491867D01*
X132212590Y-87279751D01*
X132307793Y-87049912D01*
X132365868Y-86808009D01*
X132385387Y-86560000D01*
X132365868Y-86311991D01*
X132307793Y-86070088D01*
X132212590Y-85840249D01*
X132212590Y-85840248D01*
X132082608Y-85628138D01*
X132082607Y-85628135D01*
X131999038Y-85530289D01*
X131921038Y-85438962D01*
X131746626Y-85290000D01*
X131731864Y-85277392D01*
X131731861Y-85277391D01*
X131519751Y-85147409D01*
X131289914Y-85052208D01*
X131289916Y-85052208D01*
X131289912Y-85052207D01*
X131289908Y-85052206D01*
X131289902Y-85052204D01*
X131048012Y-84994132D01*
X130800000Y-84974613D01*
X130551987Y-84994132D01*
X130310097Y-85052204D01*
X130310085Y-85052208D01*
X130080248Y-85147409D01*
X129868138Y-85277391D01*
X129868135Y-85277392D01*
X129678962Y-85438962D01*
X129517392Y-85628135D01*
X129517391Y-85628138D01*
X129387409Y-85840248D01*
X129292208Y-86070085D01*
X129292204Y-86070097D01*
X129234132Y-86311987D01*
X129214613Y-86560000D01*
X123300500Y-86560000D01*
X123300500Y-80397648D01*
X123289711Y-80329531D01*
X123268477Y-80195465D01*
X123205218Y-80000776D01*
X123165409Y-79922648D01*
X123112287Y-79818390D01*
X123104556Y-79807749D01*
X122991971Y-79652786D01*
X122847213Y-79508028D01*
X122681613Y-79387715D01*
X122681612Y-79387714D01*
X122681610Y-79387713D01*
X122624653Y-79358691D01*
X122499223Y-79294781D01*
X122304534Y-79231522D01*
X122129995Y-79203878D01*
X122102352Y-79199500D01*
X122102351Y-79199500D01*
X107449500Y-79199500D01*
X107382461Y-79179815D01*
X107336706Y-79127011D01*
X107325500Y-79075500D01*
X107325500Y-74644445D01*
X107345185Y-74577406D01*
X107355207Y-74563917D01*
X107364412Y-74553140D01*
X107500154Y-74331628D01*
X107505326Y-74319142D01*
X107549165Y-74264738D01*
X107615459Y-74242671D01*
X107683159Y-74259949D01*
X107707569Y-74278911D01*
X109145586Y-75716928D01*
X109268072Y-75839414D01*
X109408212Y-75941232D01*
X109562555Y-76019873D01*
X109727299Y-76073402D01*
X109898389Y-76100500D01*
X109898390Y-76100500D01*
X110071611Y-76100500D01*
X126352796Y-76100500D01*
X126419835Y-76120185D01*
X126440477Y-76136819D01*
X129179784Y-78876126D01*
X129213269Y-78937449D01*
X129215721Y-78954078D01*
X129234132Y-79188012D01*
X129292204Y-79429902D01*
X129292208Y-79429914D01*
X129387409Y-79659751D01*
X129517391Y-79871861D01*
X129517392Y-79871864D01*
X129517395Y-79871867D01*
X129678962Y-80061038D01*
X129742975Y-80115710D01*
X129781168Y-80174217D01*
X129781666Y-80244085D01*
X129744313Y-80303131D01*
X129742999Y-80304268D01*
X129713421Y-80329531D01*
X129678962Y-80358962D01*
X129517395Y-80548133D01*
X129517391Y-80548138D01*
X129387409Y-80760248D01*
X129292208Y-80990085D01*
X129292204Y-80990097D01*
X129234132Y-81231987D01*
X129214613Y-81480000D01*
X129234132Y-81728012D01*
X129292204Y-81969902D01*
X129292208Y-81969914D01*
X129387409Y-82199751D01*
X129517391Y-82411861D01*
X129517392Y-82411864D01*
X129525393Y-82421232D01*
X129678962Y-82601038D01*
X129811478Y-82714217D01*
X129868135Y-82762607D01*
X129868138Y-82762608D01*
X130080248Y-82892590D01*
X130145215Y-82919500D01*
X130310088Y-82987793D01*
X130551991Y-83045868D01*
X130800000Y-83065387D01*
X131048009Y-83045868D01*
X131289912Y-82987793D01*
X131519751Y-82892590D01*
X131731867Y-82762605D01*
X131921038Y-82601038D01*
X132082605Y-82411867D01*
X132212590Y-82199751D01*
X132307793Y-81969912D01*
X132365868Y-81728009D01*
X132385387Y-81480000D01*
X132365868Y-81231991D01*
X132307793Y-80990088D01*
X132212590Y-80760249D01*
X132212590Y-80760248D01*
X132082608Y-80548138D01*
X132082605Y-80548133D01*
X131921038Y-80358962D01*
X131910300Y-80349791D01*
X131857023Y-80304288D01*
X131818832Y-80245784D01*
X131818332Y-80175916D01*
X131855686Y-80116870D01*
X131856949Y-80115774D01*
X131921038Y-80061038D01*
X132082605Y-79871867D01*
X132212590Y-79659751D01*
X132307793Y-79429912D01*
X132365868Y-79188009D01*
X132385387Y-78940000D01*
X132365868Y-78691991D01*
X132307793Y-78450088D01*
X132212590Y-78220249D01*
X132212590Y-78220248D01*
X132082608Y-78008138D01*
X132082607Y-78008135D01*
X131921038Y-77818962D01*
X131857023Y-77764288D01*
X131818832Y-77705784D01*
X131818332Y-77635916D01*
X131855686Y-77576870D01*
X131856949Y-77575774D01*
X131921038Y-77521038D01*
X132082605Y-77331867D01*
X132212590Y-77119751D01*
X132307793Y-76889912D01*
X132365868Y-76648009D01*
X132385387Y-76400000D01*
X132365868Y-76151991D01*
X132307793Y-75910088D01*
X132212590Y-75680249D01*
X132212590Y-75680248D01*
X132082608Y-75468138D01*
X132082607Y-75468135D01*
X131921038Y-75278962D01*
X131857023Y-75224288D01*
X131818832Y-75165784D01*
X131818332Y-75095916D01*
X131855686Y-75036870D01*
X131856949Y-75035774D01*
X131921038Y-74981038D01*
X132082605Y-74791867D01*
X132212590Y-74579751D01*
X132307793Y-74349912D01*
X132365868Y-74108009D01*
X132385387Y-73860000D01*
X132365868Y-73611991D01*
X132307793Y-73370088D01*
X132212590Y-73140249D01*
X132212590Y-73140248D01*
X132082608Y-72928138D01*
X132082607Y-72928135D01*
X131921038Y-72738962D01*
X131857023Y-72684288D01*
X131818832Y-72625784D01*
X131818332Y-72555916D01*
X131855686Y-72496870D01*
X131856949Y-72495774D01*
X131921038Y-72441038D01*
X132082605Y-72251867D01*
X132212590Y-72039751D01*
X132307793Y-71809912D01*
X132365868Y-71568009D01*
X132385387Y-71320000D01*
X132365868Y-71071991D01*
X132307793Y-70830088D01*
X132212590Y-70600249D01*
X132212590Y-70600248D01*
X132082608Y-70388138D01*
X132082607Y-70388135D01*
X131921038Y-70198962D01*
X131857023Y-70144288D01*
X131818832Y-70085784D01*
X131818332Y-70015916D01*
X131855686Y-69956870D01*
X131856949Y-69955774D01*
X131921038Y-69901038D01*
X132082605Y-69711867D01*
X132212590Y-69499751D01*
X132307793Y-69269912D01*
X132365868Y-69028009D01*
X132385387Y-68780000D01*
X132365868Y-68531991D01*
X132307793Y-68290088D01*
X132212590Y-68060249D01*
X132212590Y-68060248D01*
X132082608Y-67848138D01*
X132082607Y-67848135D01*
X131921038Y-67658962D01*
X131873077Y-67618000D01*
X131857023Y-67604288D01*
X131818832Y-67545784D01*
X131818332Y-67475916D01*
X131855686Y-67416870D01*
X131856949Y-67415774D01*
X131921038Y-67361038D01*
X132082605Y-67171867D01*
X132212590Y-66959751D01*
X132307793Y-66729912D01*
X132365868Y-66488009D01*
X132385387Y-66240000D01*
X132365868Y-65991991D01*
X132307793Y-65750088D01*
X132212590Y-65520249D01*
X132212590Y-65520248D01*
X132082608Y-65308138D01*
X132082607Y-65308135D01*
X131921038Y-65118962D01*
X131913577Y-65112590D01*
X131857023Y-65064288D01*
X131818832Y-65005784D01*
X131818332Y-64935916D01*
X131855686Y-64876870D01*
X131856949Y-64875774D01*
X131921038Y-64821038D01*
X132082605Y-64631867D01*
X132212590Y-64419751D01*
X132307793Y-64189912D01*
X132365868Y-63948009D01*
X132385387Y-63700000D01*
X132365868Y-63451991D01*
X132307793Y-63210088D01*
X132212590Y-62980249D01*
X132212590Y-62980248D01*
X132082608Y-62768138D01*
X132082607Y-62768135D01*
X131921038Y-62578962D01*
X131857023Y-62524288D01*
X131818832Y-62465784D01*
X131818332Y-62395916D01*
X131855686Y-62336870D01*
X131856949Y-62335774D01*
X131921038Y-62281038D01*
X132082605Y-62091867D01*
X132212590Y-61879751D01*
X132307793Y-61649912D01*
X132365868Y-61408009D01*
X132385387Y-61160000D01*
X132365868Y-60911991D01*
X132307793Y-60670088D01*
X132246248Y-60521508D01*
X132212590Y-60440248D01*
X132082608Y-60228138D01*
X132082607Y-60228135D01*
X131921038Y-60038962D01*
X131857023Y-59984288D01*
X131818832Y-59925784D01*
X131818332Y-59855916D01*
X131855686Y-59796870D01*
X131856949Y-59795774D01*
X131921038Y-59741038D01*
X132082605Y-59551867D01*
X132212590Y-59339751D01*
X132307793Y-59109912D01*
X132365868Y-58868009D01*
X132385387Y-58620000D01*
X132365868Y-58371991D01*
X132307793Y-58130088D01*
X132212590Y-57900249D01*
X132212590Y-57900248D01*
X132082608Y-57688138D01*
X132082607Y-57688135D01*
X131921038Y-57498962D01*
X131910521Y-57489980D01*
X131857023Y-57444288D01*
X131818832Y-57385784D01*
X131818332Y-57315916D01*
X131855686Y-57256870D01*
X131856949Y-57255774D01*
X131921038Y-57201038D01*
X132082605Y-57011867D01*
X132212590Y-56799751D01*
X132307793Y-56569912D01*
X132365868Y-56328009D01*
X132385387Y-56080000D01*
X132365868Y-55831991D01*
X132307793Y-55590088D01*
X132212590Y-55360249D01*
X132212590Y-55360248D01*
X132082608Y-55148138D01*
X132082607Y-55148135D01*
X131921038Y-54958962D01*
X131857023Y-54904288D01*
X131818832Y-54845784D01*
X131818332Y-54775916D01*
X131855686Y-54716870D01*
X131856949Y-54715774D01*
X131921038Y-54661038D01*
X132082605Y-54471867D01*
X132212590Y-54259751D01*
X132307793Y-54029912D01*
X132365868Y-53788009D01*
X132385387Y-53540000D01*
X132377535Y-53440228D01*
X132391900Y-53371851D01*
X132440951Y-53322095D01*
X132501153Y-53306500D01*
X154075953Y-53306500D01*
X154142992Y-53326185D01*
X154163634Y-53342819D01*
X154617397Y-53796581D01*
X154650290Y-53855315D01*
X154692204Y-54029902D01*
X154692208Y-54029914D01*
X154787409Y-54259751D01*
X154917391Y-54471861D01*
X154917392Y-54471864D01*
X154951826Y-54512181D01*
X155078962Y-54661038D01*
X155142975Y-54715710D01*
X155181168Y-54774217D01*
X155181666Y-54844085D01*
X155144313Y-54903131D01*
X155142999Y-54904268D01*
X155078962Y-54958962D01*
X154917392Y-55148135D01*
X154917391Y-55148138D01*
X154787409Y-55360248D01*
X154692208Y-55590085D01*
X154692204Y-55590097D01*
X154634132Y-55831987D01*
X154614613Y-56080000D01*
X154634132Y-56328012D01*
X154692204Y-56569902D01*
X154692208Y-56569914D01*
X154787409Y-56799751D01*
X154917391Y-57011861D01*
X154917392Y-57011864D01*
X154972142Y-57075968D01*
X155078962Y-57201038D01*
X155142975Y-57255710D01*
X155181168Y-57314217D01*
X155181666Y-57384085D01*
X155144313Y-57443131D01*
X155142999Y-57444268D01*
X155100639Y-57480448D01*
X155078962Y-57498962D01*
X154917392Y-57688135D01*
X154917391Y-57688138D01*
X154787409Y-57900248D01*
X154692208Y-58130085D01*
X154692204Y-58130097D01*
X154634132Y-58371987D01*
X154614613Y-58620000D01*
X154634132Y-58868012D01*
X154692204Y-59109902D01*
X154692208Y-59109914D01*
X154787409Y-59339751D01*
X154917391Y-59551861D01*
X154917392Y-59551864D01*
X154917395Y-59551867D01*
X155078962Y-59741038D01*
X155142975Y-59795710D01*
X155181168Y-59854217D01*
X155181666Y-59924085D01*
X155144313Y-59983131D01*
X155142999Y-59984268D01*
X155125499Y-59999216D01*
X155078962Y-60038962D01*
X154917392Y-60228135D01*
X154917391Y-60228138D01*
X154787409Y-60440248D01*
X154692208Y-60670085D01*
X154692204Y-60670097D01*
X154634132Y-60911987D01*
X154614613Y-61160000D01*
X154634132Y-61408012D01*
X154692204Y-61649902D01*
X154692208Y-61649914D01*
X154787409Y-61879751D01*
X154917391Y-62091861D01*
X154917392Y-62091864D01*
X154917395Y-62091867D01*
X155078962Y-62281038D01*
X155142975Y-62335710D01*
X155181168Y-62394217D01*
X155181666Y-62464085D01*
X155144313Y-62523131D01*
X155142999Y-62524268D01*
X155078962Y-62578962D01*
X154917392Y-62768135D01*
X154917391Y-62768138D01*
X154787409Y-62980248D01*
X154692208Y-63210085D01*
X154692204Y-63210097D01*
X154634132Y-63451987D01*
X154614613Y-63700000D01*
X154634132Y-63948012D01*
X154692204Y-64189902D01*
X154692208Y-64189914D01*
X154787409Y-64419751D01*
X154917391Y-64631861D01*
X154917392Y-64631864D01*
X154917395Y-64631867D01*
X155078962Y-64821038D01*
X155204241Y-64928036D01*
X155268135Y-64982607D01*
X155268138Y-64982608D01*
X155480248Y-65112590D01*
X155561508Y-65146248D01*
X155710088Y-65207793D01*
X155951991Y-65265868D01*
X156200000Y-65285387D01*
X156448009Y-65265868D01*
X156689912Y-65207793D01*
X156919751Y-65112590D01*
X157131867Y-64982605D01*
X157321038Y-64821038D01*
X157482605Y-64631867D01*
X157612590Y-64419751D01*
X157707793Y-64189912D01*
X157765868Y-63948009D01*
X157784279Y-63714073D01*
X157809162Y-63648789D01*
X157820208Y-63636132D01*
X160279523Y-61176819D01*
X160340846Y-61143334D01*
X160367204Y-61140500D01*
X161301579Y-61140500D01*
X161368618Y-61160185D01*
X161414373Y-61212989D01*
X161418621Y-61223546D01*
X161424211Y-61239523D01*
X161465237Y-61304815D01*
X161520184Y-61392262D01*
X161647738Y-61519816D01*
X161685902Y-61543796D01*
X161792593Y-61610835D01*
X161800478Y-61615789D01*
X161897996Y-61649912D01*
X161970745Y-61675368D01*
X161970750Y-61675369D01*
X162054980Y-61684859D01*
X162105040Y-61690499D01*
X162105043Y-61690500D01*
X162105046Y-61690500D01*
X163894957Y-61690500D01*
X163894958Y-61690499D01*
X163962104Y-61682934D01*
X164029249Y-61675369D01*
X164029252Y-61675368D01*
X164029255Y-61675368D01*
X164199522Y-61615789D01*
X164352262Y-61519816D01*
X164479816Y-61392262D01*
X164575789Y-61239522D01*
X164635368Y-61069255D01*
X164638478Y-61041658D01*
X164650499Y-60934960D01*
X164650500Y-60934956D01*
X164650500Y-59145043D01*
X164650499Y-59145039D01*
X164635369Y-59010750D01*
X164635366Y-59010737D01*
X164619521Y-58965455D01*
X164615958Y-58895677D01*
X164650687Y-58835049D01*
X164712680Y-58802821D01*
X164736562Y-58800500D01*
X164835500Y-58800500D01*
X164902539Y-58820185D01*
X164948294Y-58872989D01*
X164959500Y-58924500D01*
X164959500Y-62024084D01*
X164941227Y-62088874D01*
X164829533Y-62271140D01*
X164733126Y-62503889D01*
X164674317Y-62748848D01*
X164654551Y-63000000D01*
X164674317Y-63251151D01*
X164733127Y-63496112D01*
X164733127Y-63496114D01*
X164829197Y-63728048D01*
X164836666Y-63797517D01*
X164805391Y-63859996D01*
X164745302Y-63895648D01*
X164714636Y-63899500D01*
X160066610Y-63899500D01*
X159893389Y-63899500D01*
X159807844Y-63913049D01*
X159722298Y-63926598D01*
X159557549Y-63980128D01*
X159403211Y-64058768D01*
X159358883Y-64090975D01*
X159263072Y-64160586D01*
X159263070Y-64160588D01*
X159263069Y-64160588D01*
X156263872Y-67159784D01*
X156202549Y-67193269D01*
X156185921Y-67195721D01*
X156173076Y-67196732D01*
X155951991Y-67214132D01*
X155951987Y-67214133D01*
X155710097Y-67272204D01*
X155710085Y-67272208D01*
X155480248Y-67367409D01*
X155268138Y-67497391D01*
X155268135Y-67497392D01*
X155078962Y-67658962D01*
X154917392Y-67848135D01*
X154917391Y-67848138D01*
X154787409Y-68060248D01*
X154692208Y-68290085D01*
X154692204Y-68290097D01*
X154634132Y-68531987D01*
X154614613Y-68780000D01*
X154634132Y-69028012D01*
X154692204Y-69269902D01*
X154692208Y-69269914D01*
X154787409Y-69499751D01*
X154917391Y-69711861D01*
X154917392Y-69711864D01*
X154967045Y-69770000D01*
X155078962Y-69901038D01*
X155142975Y-69955710D01*
X155181168Y-70014217D01*
X155181666Y-70084085D01*
X155144313Y-70143131D01*
X155142999Y-70144268D01*
X155078962Y-70198962D01*
X154917392Y-70388135D01*
X154917391Y-70388138D01*
X154787409Y-70600248D01*
X154692208Y-70830085D01*
X154692204Y-70830097D01*
X154634132Y-71071987D01*
X154614613Y-71320000D01*
X154634132Y-71568012D01*
X154692204Y-71809902D01*
X154692206Y-71809908D01*
X154692207Y-71809912D01*
X154697357Y-71822346D01*
X154787409Y-72039751D01*
X154917391Y-72251861D01*
X154917392Y-72251864D01*
X154928146Y-72264455D01*
X155078962Y-72441038D01*
X155142975Y-72495710D01*
X155181168Y-72554217D01*
X155181666Y-72624085D01*
X155144313Y-72683131D01*
X155142999Y-72684268D01*
X155078962Y-72738962D01*
X154917392Y-72928135D01*
X154917391Y-72928138D01*
X154787409Y-73140248D01*
X154692208Y-73370085D01*
X154692204Y-73370097D01*
X154634132Y-73611987D01*
X154614613Y-73860000D01*
X154634132Y-74108012D01*
X154692204Y-74349902D01*
X154692206Y-74349908D01*
X154692207Y-74349912D01*
X154706149Y-74383572D01*
X154787409Y-74579751D01*
X154917391Y-74791861D01*
X154917392Y-74791864D01*
X154917395Y-74791867D01*
X155078962Y-74981038D01*
X155142975Y-75035710D01*
X155181168Y-75094217D01*
X155181666Y-75164085D01*
X155144313Y-75223131D01*
X155142999Y-75224268D01*
X155078962Y-75278962D01*
X154917392Y-75468135D01*
X154917391Y-75468138D01*
X154787409Y-75680248D01*
X154692208Y-75910085D01*
X154692204Y-75910097D01*
X154634132Y-76151987D01*
X154614613Y-76400000D01*
X154634132Y-76648012D01*
X154692204Y-76889902D01*
X154692206Y-76889908D01*
X154692207Y-76889912D01*
X154706149Y-76923572D01*
X154787409Y-77119751D01*
X154917391Y-77331861D01*
X154917392Y-77331864D01*
X154917395Y-77331867D01*
X155078962Y-77521038D01*
X155142975Y-77575710D01*
X155181168Y-77634217D01*
X155181666Y-77704085D01*
X155144313Y-77763131D01*
X155142999Y-77764268D01*
X155078962Y-77818962D01*
X154917392Y-78008135D01*
X154917391Y-78008138D01*
X154787409Y-78220248D01*
X154692208Y-78450085D01*
X154692204Y-78450097D01*
X154634132Y-78691987D01*
X154614613Y-78940000D01*
X154634132Y-79188012D01*
X154692204Y-79429902D01*
X154692208Y-79429914D01*
X154787409Y-79659751D01*
X154917391Y-79871861D01*
X154917392Y-79871864D01*
X154917395Y-79871867D01*
X155078962Y-80061038D01*
X155142975Y-80115710D01*
X155181168Y-80174217D01*
X155181666Y-80244085D01*
X155144313Y-80303131D01*
X155142999Y-80304268D01*
X155113421Y-80329531D01*
X155078962Y-80358962D01*
X154917395Y-80548133D01*
X154917391Y-80548138D01*
X154787409Y-80760248D01*
X154692208Y-80990085D01*
X154692204Y-80990097D01*
X154634132Y-81231987D01*
X154614613Y-81480000D01*
X154634132Y-81728012D01*
X154692204Y-81969902D01*
X154692208Y-81969914D01*
X154787409Y-82199751D01*
X154917391Y-82411861D01*
X154917392Y-82411864D01*
X154925393Y-82421232D01*
X155078962Y-82601038D01*
X155142975Y-82655710D01*
X155181168Y-82714217D01*
X155181666Y-82784085D01*
X155144313Y-82843131D01*
X155142999Y-82844268D01*
X155089700Y-82889791D01*
X155078962Y-82898962D01*
X154917392Y-83088135D01*
X154917391Y-83088138D01*
X154787409Y-83300248D01*
X154692208Y-83530085D01*
X154692204Y-83530097D01*
X154634132Y-83771987D01*
X154614613Y-84020000D01*
X154634132Y-84268012D01*
X154692204Y-84509902D01*
X154692208Y-84509914D01*
X154787409Y-84739751D01*
X154917391Y-84951861D01*
X154917392Y-84951864D01*
X154917395Y-84951867D01*
X155078962Y-85141038D01*
X155142975Y-85195710D01*
X155181168Y-85254217D01*
X155181666Y-85324085D01*
X155144313Y-85383131D01*
X155142999Y-85384268D01*
X155108904Y-85413389D01*
X155078962Y-85438962D01*
X154917392Y-85628135D01*
X154917391Y-85628138D01*
X154787409Y-85840248D01*
X154692208Y-86070085D01*
X154692204Y-86070097D01*
X154634132Y-86311987D01*
X154614613Y-86560000D01*
X154634132Y-86808012D01*
X154692204Y-87049902D01*
X154692208Y-87049914D01*
X154787409Y-87279751D01*
X154917391Y-87491861D01*
X154917392Y-87491864D01*
X154917395Y-87491867D01*
X155078962Y-87681038D01*
X155142975Y-87735710D01*
X155181168Y-87794217D01*
X155181666Y-87864085D01*
X155144313Y-87923131D01*
X155142999Y-87924268D01*
X155078962Y-87978962D01*
X154917392Y-88168135D01*
X154917391Y-88168138D01*
X154787409Y-88380248D01*
X154692208Y-88610085D01*
X154692204Y-88610097D01*
X154634132Y-88851987D01*
X154614613Y-89100000D01*
X154634132Y-89348012D01*
X154692204Y-89589902D01*
X154692208Y-89589914D01*
X154787409Y-89819751D01*
X154917391Y-90031861D01*
X154917392Y-90031864D01*
X154917395Y-90031867D01*
X155078962Y-90221038D01*
X155142975Y-90275710D01*
X155181168Y-90334217D01*
X155181666Y-90404085D01*
X155144313Y-90463131D01*
X155142999Y-90464268D01*
X155078962Y-90518962D01*
X154917392Y-90708135D01*
X154917391Y-90708138D01*
X154787409Y-90920248D01*
X154692208Y-91150085D01*
X154692204Y-91150097D01*
X154634132Y-91391987D01*
X154614613Y-91640000D01*
X154634132Y-91888012D01*
X154692204Y-92129902D01*
X154692208Y-92129914D01*
X154787409Y-92359751D01*
X154917391Y-92571861D01*
X154917392Y-92571864D01*
X154917395Y-92571867D01*
X155078962Y-92761038D01*
X155142975Y-92815710D01*
X155181168Y-92874217D01*
X155181666Y-92944085D01*
X155144313Y-93003131D01*
X155142999Y-93004268D01*
X155078962Y-93058962D01*
X154917392Y-93248135D01*
X154917391Y-93248138D01*
X154787409Y-93460248D01*
X154692208Y-93690085D01*
X154692204Y-93690097D01*
X154634132Y-93931987D01*
X154614613Y-94180000D01*
X154634132Y-94428012D01*
X154692204Y-94669902D01*
X154692208Y-94669914D01*
X154787409Y-94899751D01*
X154917391Y-95111861D01*
X154917392Y-95111864D01*
X154917395Y-95111867D01*
X155078962Y-95301038D01*
X155142975Y-95355710D01*
X155181168Y-95414217D01*
X155181666Y-95484085D01*
X155144313Y-95543131D01*
X155142999Y-95544268D01*
X155078962Y-95598962D01*
X154917392Y-95788135D01*
X154917391Y-95788138D01*
X154787409Y-96000248D01*
X154692208Y-96230085D01*
X154692204Y-96230097D01*
X154634132Y-96471987D01*
X154614613Y-96720000D01*
X154634132Y-96968012D01*
X154692204Y-97209902D01*
X154692208Y-97209914D01*
X154787409Y-97439751D01*
X154917391Y-97651861D01*
X154917392Y-97651863D01*
X154934999Y-97672478D01*
X154963570Y-97736239D01*
X154953133Y-97805325D01*
X154922135Y-97844733D01*
X154922662Y-97845260D01*
X154918250Y-97849671D01*
X154918033Y-97849948D01*
X154917741Y-97850180D01*
X154790184Y-97977737D01*
X154694211Y-98130476D01*
X154634631Y-98300745D01*
X154634630Y-98300750D01*
X154619500Y-98435039D01*
X154619500Y-100084960D01*
X154634630Y-100219249D01*
X154634631Y-100219254D01*
X154678779Y-100345420D01*
X154681895Y-100406492D01*
X154705203Y-100417137D01*
X154728992Y-100444875D01*
X154790184Y-100542262D01*
X154917738Y-100669816D01*
X155070478Y-100765789D01*
X155240745Y-100825368D01*
X155240750Y-100825369D01*
X155331246Y-100835565D01*
X155375040Y-100840499D01*
X155375043Y-100840500D01*
X155375046Y-100840500D01*
X157024957Y-100840500D01*
X157024958Y-100840499D01*
X157092104Y-100832934D01*
X157159249Y-100825369D01*
X157159252Y-100825368D01*
X157159255Y-100825368D01*
X157329522Y-100765789D01*
X157482262Y-100669816D01*
X157609816Y-100542262D01*
X157705789Y-100389522D01*
X157765368Y-100219255D01*
X157768049Y-100195465D01*
X157780499Y-100084960D01*
X157780500Y-100084956D01*
X157780500Y-98435043D01*
X157780499Y-98435039D01*
X157765369Y-98300750D01*
X157765368Y-98300745D01*
X157705788Y-98130476D01*
X157609815Y-97977737D01*
X157482265Y-97850187D01*
X157482262Y-97850184D01*
X157482256Y-97850180D01*
X157481974Y-97849955D01*
X157481835Y-97849757D01*
X157477338Y-97845260D01*
X157478125Y-97844472D01*
X157441836Y-97792765D01*
X157438988Y-97722954D01*
X157465001Y-97672478D01*
X157482605Y-97651867D01*
X157612590Y-97439751D01*
X157707793Y-97209912D01*
X157765868Y-96968009D01*
X157785387Y-96720000D01*
X157765868Y-96471991D01*
X157707793Y-96230088D01*
X157612590Y-96000249D01*
X157612590Y-96000248D01*
X157482608Y-95788138D01*
X157482607Y-95788135D01*
X157321038Y-95598962D01*
X157257023Y-95544288D01*
X157218832Y-95485784D01*
X157218332Y-95415916D01*
X157255686Y-95356870D01*
X157256949Y-95355774D01*
X157321038Y-95301038D01*
X157482605Y-95111867D01*
X157612590Y-94899751D01*
X157707793Y-94669912D01*
X157765868Y-94428009D01*
X157785387Y-94180000D01*
X157765868Y-93931991D01*
X157707793Y-93690088D01*
X157612590Y-93460249D01*
X157612590Y-93460248D01*
X157482608Y-93248138D01*
X157482607Y-93248135D01*
X157321038Y-93058962D01*
X157257023Y-93004288D01*
X157218832Y-92945784D01*
X157218332Y-92875916D01*
X157255686Y-92816870D01*
X157256949Y-92815774D01*
X157321038Y-92761038D01*
X157482605Y-92571867D01*
X157612590Y-92359751D01*
X157707793Y-92129912D01*
X157765868Y-91888009D01*
X157785387Y-91640000D01*
X157765868Y-91391991D01*
X157707793Y-91150088D01*
X157612590Y-90920249D01*
X157612590Y-90920248D01*
X157482608Y-90708138D01*
X157482607Y-90708135D01*
X157321038Y-90518962D01*
X157257023Y-90464288D01*
X157218832Y-90405784D01*
X157218332Y-90335916D01*
X157255686Y-90276870D01*
X157256949Y-90275774D01*
X157321038Y-90221038D01*
X157482605Y-90031867D01*
X157612590Y-89819751D01*
X157707793Y-89589912D01*
X157765868Y-89348009D01*
X157785387Y-89100000D01*
X157765868Y-88851991D01*
X157707793Y-88610088D01*
X157612590Y-88380249D01*
X157612590Y-88380248D01*
X157482608Y-88168138D01*
X157482607Y-88168135D01*
X157321038Y-87978962D01*
X157257023Y-87924288D01*
X157218832Y-87865784D01*
X157218332Y-87795916D01*
X157255686Y-87736870D01*
X157256949Y-87735774D01*
X157321038Y-87681038D01*
X157482605Y-87491867D01*
X157612590Y-87279751D01*
X157707793Y-87049912D01*
X157765868Y-86808009D01*
X157785387Y-86560000D01*
X157765868Y-86311991D01*
X157707793Y-86070088D01*
X157612590Y-85840249D01*
X157612590Y-85840248D01*
X157482608Y-85628138D01*
X157482607Y-85628135D01*
X157321038Y-85438962D01*
X157257023Y-85384288D01*
X157218832Y-85325784D01*
X157218332Y-85255916D01*
X157255686Y-85196870D01*
X157256949Y-85195774D01*
X157310301Y-85150207D01*
X157374060Y-85121639D01*
X157390830Y-85120500D01*
X163512796Y-85120500D01*
X163579835Y-85140185D01*
X163600477Y-85156819D01*
X164363181Y-85919523D01*
X164396666Y-85980846D01*
X164399500Y-86007204D01*
X164399500Y-115913389D01*
X164399500Y-116086611D01*
X164426598Y-116257701D01*
X164480127Y-116422445D01*
X164558768Y-116576788D01*
X164660586Y-116716928D01*
X164660588Y-116716930D01*
X166671601Y-118727943D01*
X166705086Y-118789266D01*
X166707573Y-118824890D01*
X166694451Y-118999995D01*
X166694451Y-119000004D01*
X166714616Y-119269101D01*
X166774664Y-119532188D01*
X166774666Y-119532195D01*
X166873257Y-119783398D01*
X167008185Y-120017102D01*
X167120297Y-120157685D01*
X167176442Y-120228089D01*
X167363183Y-120401358D01*
X167374259Y-120411635D01*
X167597226Y-120563651D01*
X167840359Y-120680738D01*
X168098228Y-120760280D01*
X168098229Y-120760280D01*
X168098232Y-120760281D01*
X168365063Y-120800499D01*
X168365068Y-120800499D01*
X168365071Y-120800500D01*
X168365072Y-120800500D01*
X168634928Y-120800500D01*
X168634929Y-120800500D01*
X168634936Y-120800499D01*
X168901767Y-120760281D01*
X168901768Y-120760280D01*
X168901772Y-120760280D01*
X169159641Y-120680738D01*
X169402775Y-120563651D01*
X169625741Y-120411635D01*
X169794411Y-120255132D01*
X169823557Y-120228089D01*
X169823557Y-120228087D01*
X169823561Y-120228085D01*
X169991815Y-120017102D01*
X170126743Y-119783398D01*
X170225334Y-119532195D01*
X170285383Y-119269103D01*
X170292105Y-119179402D01*
X170305549Y-119000004D01*
X170305549Y-118999995D01*
X175694451Y-118999995D01*
X175694451Y-119000004D01*
X175714616Y-119269101D01*
X175774664Y-119532188D01*
X175774666Y-119532195D01*
X175873257Y-119783398D01*
X176008185Y-120017102D01*
X176120297Y-120157685D01*
X176176442Y-120228089D01*
X176363183Y-120401358D01*
X176374259Y-120411635D01*
X176597226Y-120563651D01*
X176840359Y-120680738D01*
X177098228Y-120760280D01*
X177098229Y-120760280D01*
X177098232Y-120760281D01*
X177365063Y-120800499D01*
X177365068Y-120800499D01*
X177365071Y-120800500D01*
X177365072Y-120800500D01*
X177634928Y-120800500D01*
X177634929Y-120800500D01*
X177634936Y-120800499D01*
X177901767Y-120760281D01*
X177901768Y-120760280D01*
X177901772Y-120760280D01*
X178159641Y-120680738D01*
X178402775Y-120563651D01*
X178625741Y-120411635D01*
X178823561Y-120228085D01*
X178858170Y-120184686D01*
X178915358Y-120144547D01*
X178955117Y-120138000D01*
X192542421Y-120138000D01*
X192609460Y-120157685D01*
X192618579Y-120164144D01*
X192735481Y-120255132D01*
X192946747Y-120369463D01*
X193173949Y-120447462D01*
X193410891Y-120487000D01*
X193651109Y-120487000D01*
X193888051Y-120447462D01*
X194115253Y-120369463D01*
X194326519Y-120255132D01*
X194516084Y-120107587D01*
X194678780Y-119930853D01*
X194810166Y-119729750D01*
X194906661Y-119509765D01*
X194965631Y-119276898D01*
X194985468Y-119037500D01*
X194982360Y-118999995D01*
X194965631Y-118798105D01*
X194965631Y-118798102D01*
X194906661Y-118565235D01*
X194810166Y-118345250D01*
X194678779Y-118144145D01*
X194516087Y-117967416D01*
X194516077Y-117967407D01*
X194384958Y-117865353D01*
X194344145Y-117808643D01*
X194340470Y-117738870D01*
X194375102Y-117678187D01*
X194384958Y-117669647D01*
X194408115Y-117651622D01*
X194516084Y-117567587D01*
X194678780Y-117390853D01*
X194810166Y-117189750D01*
X194906661Y-116969765D01*
X194965631Y-116736898D01*
X194985468Y-116497500D01*
X194965631Y-116258102D01*
X194906661Y-116025235D01*
X194857600Y-115913389D01*
X194810166Y-115805250D01*
X194678781Y-115604149D01*
X194678780Y-115604147D01*
X194664269Y-115588384D01*
X194633348Y-115525730D01*
X194631500Y-115504402D01*
X194631500Y-110544389D01*
X194604402Y-110373301D01*
X194604402Y-110373299D01*
X194552380Y-110213193D01*
X194551318Y-110209427D01*
X194472231Y-110054211D01*
X194370414Y-109914072D01*
X187812099Y-103355757D01*
X187778614Y-103294434D01*
X187776127Y-103258810D01*
X187795521Y-103000004D01*
X187795521Y-102999995D01*
X187775468Y-102732400D01*
X187775467Y-102732395D01*
X187775467Y-102732391D01*
X187715751Y-102470761D01*
X187617709Y-102220953D01*
X187483529Y-101988547D01*
X187316210Y-101778736D01*
X187316209Y-101778735D01*
X187316206Y-101778731D01*
X187119489Y-101596205D01*
X186897761Y-101445033D01*
X186897757Y-101445031D01*
X186897754Y-101445029D01*
X186897753Y-101445028D01*
X186655979Y-101328598D01*
X186655981Y-101328598D01*
X186399542Y-101249496D01*
X186399536Y-101249494D01*
X186134186Y-101209500D01*
X186134179Y-101209500D01*
X185865821Y-101209500D01*
X185865813Y-101209500D01*
X185600463Y-101249494D01*
X185600457Y-101249496D01*
X185344021Y-101328597D01*
X185102247Y-101445028D01*
X185102246Y-101445029D01*
X184880510Y-101596205D01*
X184683793Y-101778731D01*
X184516471Y-101988547D01*
X184382291Y-102220952D01*
X184284251Y-102470755D01*
X184284245Y-102470774D01*
X184224532Y-102732395D01*
X184224531Y-102732400D01*
X184204479Y-102999995D01*
X184204479Y-103000004D01*
X184224531Y-103267599D01*
X184224532Y-103267604D01*
X184284245Y-103529225D01*
X184284247Y-103529234D01*
X184284249Y-103529239D01*
X184382291Y-103779047D01*
X184516471Y-104011453D01*
X184642314Y-104169255D01*
X184683795Y-104221270D01*
X184683798Y-104221273D01*
X184859841Y-104384617D01*
X184895596Y-104444645D01*
X184899500Y-104475515D01*
X184899500Y-109387734D01*
X184879815Y-109454773D01*
X184849811Y-109487001D01*
X184752259Y-109560028D01*
X184752247Y-109560038D01*
X184560038Y-109752247D01*
X184560028Y-109752259D01*
X184397110Y-109969891D01*
X184397109Y-109969892D01*
X184266830Y-110208480D01*
X184219326Y-110335843D01*
X184171825Y-110463199D01*
X184171824Y-110463202D01*
X184171823Y-110463206D01*
X184114040Y-110728832D01*
X184114039Y-110728839D01*
X184094645Y-110999998D01*
X184094645Y-111000001D01*
X184114039Y-111271160D01*
X184114040Y-111271167D01*
X184171823Y-111536793D01*
X184171825Y-111536801D01*
X184248330Y-111741920D01*
X184266830Y-111791519D01*
X184397109Y-112030107D01*
X184397110Y-112030108D01*
X184397113Y-112030113D01*
X184560029Y-112247742D01*
X184560033Y-112247746D01*
X184560038Y-112247752D01*
X184752247Y-112439961D01*
X184752253Y-112439966D01*
X184752258Y-112439971D01*
X184969887Y-112602887D01*
X184969891Y-112602889D01*
X184969892Y-112602890D01*
X185208481Y-112733169D01*
X185208480Y-112733169D01*
X185208484Y-112733170D01*
X185208487Y-112733172D01*
X185463199Y-112828175D01*
X185728840Y-112885961D01*
X185980605Y-112903967D01*
X185999999Y-112905355D01*
X186000000Y-112905355D01*
X186000001Y-112905355D01*
X186018100Y-112904060D01*
X186271160Y-112885961D01*
X186536801Y-112828175D01*
X186791513Y-112733172D01*
X186791517Y-112733169D01*
X186791519Y-112733169D01*
X186910813Y-112668029D01*
X187030113Y-112602887D01*
X187247742Y-112439971D01*
X187439971Y-112247742D01*
X187602887Y-112030113D01*
X187733172Y-111791513D01*
X187828175Y-111536801D01*
X187885961Y-111271160D01*
X187905355Y-111000000D01*
X187885961Y-110728840D01*
X187828175Y-110463199D01*
X187733172Y-110208487D01*
X187733170Y-110208484D01*
X187733169Y-110208480D01*
X187602890Y-109969892D01*
X187602889Y-109969891D01*
X187602887Y-109969887D01*
X187439971Y-109752258D01*
X187439966Y-109752253D01*
X187439961Y-109752247D01*
X187247752Y-109560038D01*
X187247746Y-109560033D01*
X187247742Y-109560029D01*
X187150189Y-109487001D01*
X187108318Y-109431067D01*
X187100500Y-109387734D01*
X187100500Y-106056204D01*
X187120185Y-105989165D01*
X187172989Y-105943410D01*
X187242147Y-105933466D01*
X187305703Y-105962491D01*
X187312181Y-105968523D01*
X192394181Y-111050523D01*
X192427666Y-111111846D01*
X192430500Y-111138204D01*
X192430500Y-115504402D01*
X192410815Y-115571441D01*
X192397730Y-115588385D01*
X192383218Y-115604149D01*
X192251833Y-115805250D01*
X192155338Y-116025234D01*
X192096368Y-116258105D01*
X192076532Y-116497494D01*
X192076532Y-116497505D01*
X192096368Y-116736894D01*
X192155338Y-116969765D01*
X192251833Y-117189749D01*
X192383220Y-117390854D01*
X192545912Y-117567583D01*
X192545916Y-117567587D01*
X192662622Y-117658423D01*
X192677042Y-117669647D01*
X192717855Y-117726357D01*
X192721529Y-117796130D01*
X192686897Y-117856813D01*
X192677052Y-117865344D01*
X192618581Y-117910854D01*
X192553592Y-117936496D01*
X192542422Y-117937000D01*
X179014927Y-117937000D01*
X178947888Y-117917315D01*
X178917980Y-117890313D01*
X178823557Y-117771910D01*
X178625741Y-117588365D01*
X178595259Y-117567583D01*
X178402775Y-117436349D01*
X178402769Y-117436346D01*
X178402768Y-117436345D01*
X178402767Y-117436344D01*
X178159643Y-117319263D01*
X178159645Y-117319263D01*
X177901773Y-117239720D01*
X177901767Y-117239718D01*
X177634936Y-117199500D01*
X177634929Y-117199500D01*
X177365071Y-117199500D01*
X177365063Y-117199500D01*
X177098232Y-117239718D01*
X177098226Y-117239720D01*
X176840358Y-117319262D01*
X176597230Y-117436346D01*
X176374258Y-117588365D01*
X176176442Y-117771910D01*
X176008185Y-117982898D01*
X175873258Y-118216599D01*
X175873256Y-118216603D01*
X175774666Y-118467804D01*
X175774664Y-118467811D01*
X175714616Y-118730898D01*
X175694451Y-118999995D01*
X170305549Y-118999995D01*
X170285383Y-118730898D01*
X170284709Y-118727943D01*
X170225334Y-118467805D01*
X170126743Y-118216602D01*
X169991815Y-117982898D01*
X169823561Y-117771915D01*
X169823560Y-117771914D01*
X169823557Y-117771910D01*
X169625741Y-117588365D01*
X169595259Y-117567583D01*
X169402775Y-117436349D01*
X169402769Y-117436346D01*
X169402768Y-117436345D01*
X169402767Y-117436344D01*
X169159643Y-117319263D01*
X169159645Y-117319263D01*
X168901773Y-117239720D01*
X168901767Y-117239718D01*
X168634936Y-117199500D01*
X168634929Y-117199500D01*
X168365071Y-117199500D01*
X168365063Y-117199500D01*
X168332047Y-117204477D01*
X168262822Y-117195004D01*
X168225885Y-117169543D01*
X166636819Y-115580477D01*
X166603334Y-115519154D01*
X166600500Y-115492796D01*
X166600500Y-90799995D01*
X172204479Y-90799995D01*
X172204479Y-90800004D01*
X172224531Y-91067599D01*
X172224532Y-91067604D01*
X172284245Y-91329225D01*
X172284247Y-91329234D01*
X172284249Y-91329239D01*
X172382291Y-91579047D01*
X172516471Y-91811453D01*
X172577525Y-91888012D01*
X172683793Y-92021268D01*
X172800884Y-92129912D01*
X172880511Y-92203795D01*
X173102240Y-92354967D01*
X173102245Y-92354969D01*
X173102246Y-92354970D01*
X173102247Y-92354971D01*
X173330638Y-92464957D01*
X173344023Y-92471403D01*
X173600459Y-92550504D01*
X173600460Y-92550504D01*
X173600463Y-92550505D01*
X173865813Y-92590499D01*
X173865818Y-92590499D01*
X173865821Y-92590500D01*
X173865822Y-92590500D01*
X174134178Y-92590500D01*
X174134179Y-92590500D01*
X174134186Y-92590499D01*
X174399536Y-92550505D01*
X174399537Y-92550504D01*
X174399541Y-92550504D01*
X174655977Y-92471403D01*
X174897761Y-92354967D01*
X175119489Y-92203795D01*
X175316210Y-92021264D01*
X175483529Y-91811453D01*
X175617709Y-91579047D01*
X175715751Y-91329239D01*
X175775467Y-91067609D01*
X175792714Y-90837460D01*
X175795521Y-90800004D01*
X175795521Y-90799995D01*
X175775468Y-90532400D01*
X175775467Y-90532395D01*
X175775467Y-90532391D01*
X175715751Y-90270761D01*
X175617709Y-90020953D01*
X175483529Y-89788547D01*
X175316210Y-89578736D01*
X175316209Y-89578735D01*
X175316206Y-89578731D01*
X175119489Y-89396205D01*
X175048803Y-89348012D01*
X174897761Y-89245033D01*
X174897757Y-89245031D01*
X174897754Y-89245029D01*
X174897753Y-89245028D01*
X174655979Y-89128598D01*
X174655981Y-89128598D01*
X174399542Y-89049496D01*
X174399536Y-89049494D01*
X174134186Y-89009500D01*
X174134179Y-89009500D01*
X173865821Y-89009500D01*
X173865813Y-89009500D01*
X173600463Y-89049494D01*
X173600457Y-89049496D01*
X173344021Y-89128597D01*
X173102247Y-89245028D01*
X173102246Y-89245029D01*
X172880510Y-89396205D01*
X172683793Y-89578731D01*
X172516471Y-89788547D01*
X172382291Y-90020952D01*
X172284251Y-90270755D01*
X172284245Y-90270774D01*
X172224532Y-90532395D01*
X172224531Y-90532400D01*
X172204479Y-90799995D01*
X166600500Y-90799995D01*
X166600500Y-85413389D01*
X166595708Y-85383131D01*
X166573402Y-85242299D01*
X166519873Y-85077555D01*
X166441232Y-84923212D01*
X166339414Y-84783072D01*
X166216928Y-84660586D01*
X164736928Y-83180586D01*
X164596788Y-83078768D01*
X164442445Y-83000127D01*
X164277701Y-82946598D01*
X164277699Y-82946597D01*
X164277698Y-82946597D01*
X164146271Y-82925781D01*
X164106611Y-82919500D01*
X164106610Y-82919500D01*
X157390830Y-82919500D01*
X157323791Y-82899815D01*
X157310307Y-82889797D01*
X157257023Y-82844288D01*
X157218831Y-82785784D01*
X157218332Y-82715916D01*
X157255686Y-82656869D01*
X157256944Y-82655778D01*
X157310301Y-82610207D01*
X157374060Y-82581639D01*
X157390830Y-82580500D01*
X158026610Y-82580500D01*
X158026611Y-82580500D01*
X158197701Y-82553402D01*
X158362445Y-82499873D01*
X158516788Y-82421232D01*
X158656928Y-82319414D01*
X168714573Y-72261767D01*
X168775896Y-72228283D01*
X168795172Y-72226210D01*
X168795143Y-72225831D01*
X168799998Y-72225448D01*
X168800000Y-72225449D01*
X169051148Y-72205683D01*
X169296111Y-72146873D01*
X169528859Y-72050466D01*
X169743659Y-71918836D01*
X169834969Y-71840849D01*
X169898729Y-71812279D01*
X169967815Y-71822716D01*
X170020291Y-71868847D01*
X170039500Y-71935140D01*
X170039500Y-77442351D01*
X170071521Y-77644526D01*
X170071526Y-77644545D01*
X170075702Y-77657397D01*
X170075703Y-77657399D01*
X170134778Y-77839216D01*
X170134780Y-77839219D01*
X170164551Y-77897648D01*
X170227713Y-78021611D01*
X170348034Y-78187219D01*
X171152781Y-78991966D01*
X171318389Y-79112287D01*
X171397864Y-79152781D01*
X171500776Y-79205218D01*
X171500778Y-79205218D01*
X171500781Y-79205220D01*
X171581733Y-79231523D01*
X171695465Y-79268477D01*
X171897648Y-79300500D01*
X184533126Y-79300500D01*
X184600165Y-79320185D01*
X184645920Y-79372989D01*
X184655864Y-79442147D01*
X184646683Y-79474304D01*
X184631889Y-79508034D01*
X184623388Y-79527413D01*
X184564379Y-79760440D01*
X184544529Y-79999994D01*
X184544529Y-80000005D01*
X184564379Y-80239559D01*
X184623390Y-80472591D01*
X184689056Y-80622294D01*
X184699500Y-80672104D01*
X184699500Y-89475500D01*
X184679815Y-89542539D01*
X184627011Y-89588294D01*
X184575500Y-89599500D01*
X183702351Y-89599500D01*
X183497648Y-89599500D01*
X183430253Y-89610174D01*
X183295463Y-89631523D01*
X183198123Y-89663150D01*
X183198123Y-89663151D01*
X183100781Y-89694780D01*
X183100779Y-89694780D01*
X183100779Y-89694781D01*
X183043217Y-89724109D01*
X183043218Y-89724110D01*
X182918387Y-89787714D01*
X182918384Y-89787716D01*
X182752778Y-89908036D01*
X173008036Y-99652778D01*
X173008031Y-99652784D01*
X172887716Y-99818384D01*
X172887708Y-99818396D01*
X172867593Y-99857878D01*
X172867592Y-99857880D01*
X172794781Y-100000777D01*
X172776644Y-100056598D01*
X172731522Y-100195467D01*
X172731522Y-100195468D01*
X172703141Y-100374659D01*
X172703141Y-100374661D01*
X172699500Y-100397646D01*
X172699500Y-101191159D01*
X172679815Y-101258198D01*
X172641472Y-101296153D01*
X172507737Y-101380184D01*
X172380184Y-101507737D01*
X172341216Y-101569755D01*
X172296152Y-101641473D01*
X172243819Y-101687763D01*
X172191160Y-101699500D01*
X171102352Y-101699500D01*
X170897648Y-101699500D01*
X170873329Y-101703351D01*
X170695465Y-101731522D01*
X170500776Y-101794781D01*
X170318386Y-101887715D01*
X170152786Y-102008028D01*
X170008028Y-102152786D01*
X169887715Y-102318386D01*
X169794781Y-102500776D01*
X169731522Y-102695465D01*
X169699500Y-102897648D01*
X169699500Y-111102351D01*
X169731522Y-111304534D01*
X169794781Y-111499223D01*
X169887715Y-111681613D01*
X170008028Y-111847213D01*
X170152786Y-111991971D01*
X170307749Y-112104556D01*
X170318390Y-112112287D01*
X170434607Y-112171503D01*
X170500776Y-112205218D01*
X170500778Y-112205218D01*
X170500781Y-112205220D01*
X170605137Y-112239127D01*
X170695465Y-112268477D01*
X170796557Y-112284488D01*
X170897648Y-112300500D01*
X171102352Y-112300500D01*
X173874083Y-112300500D01*
X173941122Y-112320185D01*
X173986877Y-112372989D01*
X173991125Y-112383546D01*
X174014210Y-112449521D01*
X174110184Y-112602262D01*
X174237738Y-112729816D01*
X174390478Y-112825789D01*
X174397300Y-112828176D01*
X174560745Y-112885368D01*
X174560750Y-112885369D01*
X174651246Y-112895565D01*
X174695040Y-112900499D01*
X174695043Y-112900500D01*
X174695046Y-112900500D01*
X176984957Y-112900500D01*
X176984958Y-112900499D01*
X177052104Y-112892934D01*
X177119249Y-112885369D01*
X177119252Y-112885368D01*
X177119255Y-112885368D01*
X177289522Y-112825789D01*
X177442262Y-112729816D01*
X177569816Y-112602262D01*
X177665789Y-112449522D01*
X177725368Y-112279255D01*
X177726583Y-112268477D01*
X177740499Y-112144960D01*
X177740500Y-112144956D01*
X177740500Y-109855043D01*
X177740499Y-109855039D01*
X177725369Y-109720750D01*
X177725368Y-109720745D01*
X177688875Y-109616454D01*
X177665789Y-109550478D01*
X177569816Y-109397738D01*
X177442262Y-109270184D01*
X177289523Y-109174211D01*
X177119254Y-109114631D01*
X177119249Y-109114630D01*
X176984960Y-109099500D01*
X176984954Y-109099500D01*
X174695046Y-109099500D01*
X174695039Y-109099500D01*
X174560750Y-109114630D01*
X174560745Y-109114631D01*
X174390476Y-109174211D01*
X174237737Y-109270184D01*
X174110184Y-109397737D01*
X174014210Y-109550478D01*
X173991125Y-109616454D01*
X173950403Y-109673230D01*
X173885451Y-109698978D01*
X173874083Y-109699500D01*
X172424500Y-109699500D01*
X172357461Y-109679815D01*
X172311706Y-109627011D01*
X172300500Y-109575500D01*
X172300500Y-104999995D01*
X178227042Y-104999995D01*
X178227042Y-105000004D01*
X178246842Y-105264236D01*
X178246842Y-105264238D01*
X178246844Y-105264246D01*
X178305810Y-105522589D01*
X178402620Y-105769258D01*
X178535113Y-105998743D01*
X178700330Y-106205918D01*
X178894579Y-106386154D01*
X179113521Y-106535427D01*
X179113523Y-106535428D01*
X179113528Y-106535431D01*
X179240325Y-106596492D01*
X179352262Y-106650398D01*
X179352263Y-106650398D01*
X179352266Y-106650400D01*
X179605480Y-106728506D01*
X179605481Y-106728506D01*
X179605484Y-106728507D01*
X179867499Y-106767999D01*
X179867504Y-106767999D01*
X179867507Y-106768000D01*
X179867508Y-106768000D01*
X180132492Y-106768000D01*
X180132493Y-106768000D01*
X180132500Y-106767999D01*
X180394515Y-106728507D01*
X180394516Y-106728506D01*
X180394520Y-106728506D01*
X180647734Y-106650400D01*
X180886479Y-106535427D01*
X181105421Y-106386154D01*
X181299670Y-106205918D01*
X181464887Y-105998743D01*
X181597380Y-105769258D01*
X181694190Y-105522589D01*
X181753156Y-105264246D01*
X181772958Y-105000000D01*
X181757258Y-104790499D01*
X181753157Y-104735763D01*
X181753157Y-104735761D01*
X181753156Y-104735757D01*
X181753156Y-104735754D01*
X181694190Y-104477411D01*
X181597380Y-104230742D01*
X181464887Y-104001257D01*
X181464884Y-104001253D01*
X181327553Y-103829044D01*
X181301144Y-103764358D01*
X181300500Y-103751732D01*
X181300500Y-103090047D01*
X181320185Y-103023008D01*
X181336819Y-103002366D01*
X183962366Y-100376819D01*
X184023689Y-100343334D01*
X184050047Y-100340500D01*
X192075500Y-100340500D01*
X192142539Y-100360185D01*
X192188294Y-100412989D01*
X192199500Y-100464500D01*
X192199500Y-100584960D01*
X192214630Y-100719249D01*
X192214631Y-100719254D01*
X192274211Y-100889523D01*
X192358086Y-101023008D01*
X192370184Y-101042262D01*
X192497738Y-101169816D01*
X192560895Y-101209500D01*
X192624544Y-101249494D01*
X192650478Y-101265789D01*
X192820745Y-101325368D01*
X192820750Y-101325369D01*
X192911246Y-101335565D01*
X192955040Y-101340499D01*
X192955043Y-101340500D01*
X192955046Y-101340500D01*
X196044957Y-101340500D01*
X196044958Y-101340499D01*
X196112104Y-101332934D01*
X196179249Y-101325369D01*
X196179252Y-101325368D01*
X196179255Y-101325368D01*
X196349522Y-101265789D01*
X196502262Y-101169816D01*
X196629816Y-101042262D01*
X196725789Y-100889522D01*
X196785368Y-100719255D01*
X196800500Y-100584954D01*
X196800500Y-97495046D01*
X196785368Y-97360745D01*
X196725789Y-97190478D01*
X196629816Y-97037738D01*
X196502262Y-96910184D01*
X196349523Y-96814211D01*
X196179254Y-96754631D01*
X196179249Y-96754630D01*
X196044960Y-96739500D01*
X196044954Y-96739500D01*
X192955046Y-96739500D01*
X192955039Y-96739500D01*
X192820750Y-96754630D01*
X192820745Y-96754631D01*
X192650476Y-96814211D01*
X192497737Y-96910184D01*
X192370184Y-97037737D01*
X192274211Y-97190476D01*
X192214631Y-97360745D01*
X192214630Y-97360750D01*
X192199500Y-97495039D01*
X192199500Y-97615500D01*
X192179815Y-97682539D01*
X192127011Y-97728294D01*
X192075500Y-97739500D01*
X183562352Y-97739500D01*
X183357648Y-97739500D01*
X183290253Y-97750174D01*
X183155463Y-97771523D01*
X183058123Y-97803150D01*
X183058123Y-97803151D01*
X183005352Y-97820297D01*
X182960774Y-97834782D01*
X182869584Y-97881245D01*
X182869585Y-97881246D01*
X182778388Y-97927713D01*
X182612778Y-98048036D01*
X179008036Y-101652778D01*
X178887713Y-101818388D01*
X178853267Y-101885993D01*
X178853266Y-101885992D01*
X178794782Y-102000776D01*
X178794778Y-102000784D01*
X178786392Y-102026597D01*
X178731522Y-102195468D01*
X178731521Y-102195469D01*
X178721209Y-102260585D01*
X178721209Y-102260586D01*
X178699500Y-102397648D01*
X178699500Y-103751732D01*
X178679815Y-103818771D01*
X178672447Y-103829044D01*
X178535115Y-104001253D01*
X178402620Y-104230741D01*
X178305812Y-104477405D01*
X178305807Y-104477422D01*
X178246842Y-104735761D01*
X178246842Y-104735763D01*
X178227042Y-104999995D01*
X172300500Y-104999995D01*
X172300500Y-104711940D01*
X172320185Y-104644901D01*
X172372989Y-104599146D01*
X172442147Y-104589202D01*
X172501596Y-104616351D01*
X172502295Y-104615475D01*
X172507737Y-104619815D01*
X172507738Y-104619816D01*
X172660478Y-104715789D01*
X172830745Y-104775368D01*
X172830750Y-104775369D01*
X172921246Y-104785565D01*
X172965040Y-104790499D01*
X172965043Y-104790500D01*
X172965046Y-104790500D01*
X175034957Y-104790500D01*
X175034958Y-104790499D01*
X175102104Y-104782934D01*
X175169249Y-104775369D01*
X175169252Y-104775368D01*
X175169255Y-104775368D01*
X175339522Y-104715789D01*
X175492262Y-104619816D01*
X175619816Y-104492262D01*
X175715789Y-104339522D01*
X175775368Y-104169255D01*
X175790500Y-104034954D01*
X175790500Y-101965046D01*
X175775368Y-101830745D01*
X175715789Y-101660478D01*
X175619816Y-101507738D01*
X175492262Y-101380184D01*
X175358528Y-101296153D01*
X175312237Y-101243818D01*
X175300500Y-101191159D01*
X175300500Y-101090047D01*
X175320185Y-101023008D01*
X175336819Y-101002366D01*
X184102366Y-92236819D01*
X184163689Y-92203334D01*
X184190047Y-92200500D01*
X184837429Y-92200500D01*
X184904468Y-92220185D01*
X184907280Y-92222046D01*
X185102240Y-92354967D01*
X185102242Y-92354968D01*
X185102247Y-92354971D01*
X185330638Y-92464957D01*
X185344023Y-92471403D01*
X185600459Y-92550504D01*
X185600460Y-92550504D01*
X185600463Y-92550505D01*
X185865813Y-92590499D01*
X185865818Y-92590499D01*
X185865821Y-92590500D01*
X185865822Y-92590500D01*
X186134178Y-92590500D01*
X186134179Y-92590500D01*
X186134186Y-92590499D01*
X186399536Y-92550505D01*
X186399537Y-92550504D01*
X186399541Y-92550504D01*
X186655977Y-92471403D01*
X186897761Y-92354967D01*
X187119489Y-92203795D01*
X187316210Y-92021264D01*
X187483529Y-91811453D01*
X187617709Y-91579047D01*
X187715751Y-91329239D01*
X187775467Y-91067609D01*
X187792714Y-90837460D01*
X187795521Y-90800004D01*
X187795521Y-90799995D01*
X187775468Y-90532400D01*
X187775467Y-90532395D01*
X187775467Y-90532391D01*
X187715751Y-90270761D01*
X187617709Y-90020953D01*
X187483529Y-89788547D01*
X187327552Y-89592959D01*
X187301144Y-89528273D01*
X187300500Y-89515647D01*
X187300500Y-84378711D01*
X191649500Y-84378711D01*
X191649500Y-84621288D01*
X191681161Y-84861785D01*
X191743947Y-85096104D01*
X191824262Y-85290000D01*
X191836776Y-85320212D01*
X191958064Y-85530289D01*
X191958066Y-85530292D01*
X191958067Y-85530293D01*
X192105733Y-85722736D01*
X192105739Y-85722743D01*
X192277256Y-85894260D01*
X192277262Y-85894265D01*
X192469711Y-86041936D01*
X192679788Y-86163224D01*
X192903900Y-86256054D01*
X193138211Y-86318838D01*
X193318586Y-86342584D01*
X193378711Y-86350500D01*
X193378712Y-86350500D01*
X193621289Y-86350500D01*
X193669388Y-86344167D01*
X193861789Y-86318838D01*
X194096100Y-86256054D01*
X194320212Y-86163224D01*
X194530289Y-86041936D01*
X194722738Y-85894265D01*
X194894265Y-85722738D01*
X195041936Y-85530289D01*
X195163224Y-85320212D01*
X195256054Y-85096100D01*
X195318838Y-84861789D01*
X195350500Y-84621288D01*
X195350500Y-84378712D01*
X195318838Y-84138211D01*
X195256054Y-83903900D01*
X195163224Y-83679788D01*
X195041936Y-83469711D01*
X194894265Y-83277262D01*
X194894260Y-83277256D01*
X194722743Y-83105739D01*
X194722736Y-83105733D01*
X194530293Y-82958067D01*
X194530292Y-82958066D01*
X194530289Y-82958064D01*
X194358661Y-82858974D01*
X194320214Y-82836777D01*
X194320205Y-82836773D01*
X194096104Y-82743947D01*
X193861785Y-82681161D01*
X193621289Y-82649500D01*
X193621288Y-82649500D01*
X193378712Y-82649500D01*
X193378711Y-82649500D01*
X193138214Y-82681161D01*
X192903895Y-82743947D01*
X192679794Y-82836773D01*
X192679785Y-82836777D01*
X192469706Y-82958067D01*
X192277263Y-83105733D01*
X192277256Y-83105739D01*
X192105739Y-83277256D01*
X192105733Y-83277263D01*
X191958067Y-83469706D01*
X191836777Y-83679785D01*
X191836773Y-83679794D01*
X191743947Y-83903895D01*
X191681161Y-84138214D01*
X191649500Y-84378711D01*
X187300500Y-84378711D01*
X187300500Y-80672104D01*
X187310944Y-80622294D01*
X187376610Y-80472591D01*
X187435620Y-80239563D01*
X187450413Y-80061037D01*
X187455471Y-80000005D01*
X187455471Y-79999994D01*
X187435620Y-79760440D01*
X187435620Y-79760437D01*
X187376610Y-79527409D01*
X187353317Y-79474307D01*
X187344415Y-79405011D01*
X187374392Y-79341898D01*
X187433731Y-79305011D01*
X187466874Y-79300500D01*
X194602351Y-79300500D01*
X194602352Y-79300500D01*
X194804535Y-79268477D01*
X194918267Y-79231523D01*
X194999219Y-79205220D01*
X195102136Y-79152781D01*
X195181611Y-79112287D01*
X195347219Y-78991966D01*
X196340150Y-77999032D01*
X196340157Y-77999027D01*
X196347217Y-77991967D01*
X196347219Y-77991966D01*
X196491966Y-77847219D01*
X196612287Y-77681610D01*
X196624625Y-77657395D01*
X196705221Y-77499218D01*
X196768477Y-77304534D01*
X196800500Y-77102351D01*
X196800500Y-76897648D01*
X196800500Y-67397648D01*
X196771434Y-67214133D01*
X196768477Y-67195465D01*
X196705218Y-67000776D01*
X196666825Y-66925427D01*
X196612287Y-66818390D01*
X196591066Y-66789181D01*
X196491971Y-66652786D01*
X194767221Y-64928036D01*
X194767219Y-64928034D01*
X194684415Y-64867873D01*
X194601609Y-64807711D01*
X194512132Y-64762120D01*
X194465326Y-64720527D01*
X194329024Y-64516537D01*
X194130189Y-64289810D01*
X193903459Y-64090973D01*
X193652720Y-63923435D01*
X193652713Y-63923431D01*
X193382268Y-63790062D01*
X193382247Y-63790053D01*
X193096698Y-63693122D01*
X193096692Y-63693120D01*
X193096691Y-63693120D01*
X193096689Y-63693119D01*
X193096683Y-63693118D01*
X192800930Y-63634288D01*
X192800921Y-63634287D01*
X192800920Y-63634287D01*
X192500000Y-63614564D01*
X192199080Y-63634287D01*
X192199079Y-63634287D01*
X192199069Y-63634288D01*
X191903316Y-63693118D01*
X191903301Y-63693122D01*
X191617752Y-63790053D01*
X191617731Y-63790062D01*
X191347286Y-63923431D01*
X191347279Y-63923435D01*
X191096540Y-64090973D01*
X190869810Y-64289810D01*
X190670973Y-64516540D01*
X190503435Y-64767279D01*
X190503431Y-64767286D01*
X190370062Y-65037731D01*
X190370053Y-65037752D01*
X190273122Y-65323301D01*
X190273118Y-65323316D01*
X190214288Y-65619069D01*
X190214287Y-65619081D01*
X190194564Y-65920000D01*
X190214287Y-66220918D01*
X190214288Y-66220930D01*
X190273118Y-66516683D01*
X190273122Y-66516698D01*
X190370053Y-66802247D01*
X190370062Y-66802268D01*
X190503431Y-67072713D01*
X190503435Y-67072720D01*
X190670973Y-67323459D01*
X190869810Y-67550189D01*
X191096540Y-67749026D01*
X191347279Y-67916564D01*
X191347286Y-67916568D01*
X191617731Y-68049937D01*
X191617736Y-68049939D01*
X191617748Y-68049945D01*
X191903309Y-68146880D01*
X192103251Y-68186651D01*
X192199069Y-68205711D01*
X192199070Y-68205711D01*
X192199080Y-68205713D01*
X192500000Y-68225436D01*
X192800920Y-68205713D01*
X193096691Y-68146880D01*
X193382252Y-68049945D01*
X193652718Y-67916566D01*
X193822675Y-67803004D01*
X193889347Y-67782128D01*
X193956727Y-67800612D01*
X193979242Y-67818427D01*
X194163181Y-68002366D01*
X194196666Y-68063689D01*
X194199500Y-68090047D01*
X194199500Y-68578156D01*
X194179815Y-68645195D01*
X194127011Y-68690950D01*
X194061622Y-68701377D01*
X194044956Y-68699500D01*
X194044954Y-68699500D01*
X190955046Y-68699500D01*
X190955039Y-68699500D01*
X190820750Y-68714630D01*
X190820745Y-68714631D01*
X190650476Y-68774211D01*
X190497737Y-68870184D01*
X190370184Y-68997737D01*
X190274211Y-69150476D01*
X190214631Y-69320745D01*
X190214630Y-69320750D01*
X190199500Y-69455039D01*
X190199500Y-72544960D01*
X190214630Y-72679249D01*
X190214631Y-72679254D01*
X190274211Y-72849523D01*
X190370184Y-73002262D01*
X190497738Y-73129816D01*
X190650478Y-73225789D01*
X190820745Y-73285368D01*
X190820750Y-73285369D01*
X190911246Y-73295565D01*
X190955040Y-73300499D01*
X190955043Y-73300500D01*
X190955046Y-73300500D01*
X192075500Y-73300500D01*
X192142539Y-73320185D01*
X192188294Y-73372989D01*
X192199500Y-73424500D01*
X192199500Y-74575500D01*
X192179815Y-74642539D01*
X192127011Y-74688294D01*
X192075500Y-74699500D01*
X187573640Y-74699500D01*
X187506601Y-74679815D01*
X187460846Y-74627011D01*
X187450064Y-74565260D01*
X187455471Y-74500006D01*
X187455471Y-74499994D01*
X187435620Y-74260440D01*
X187435620Y-74260437D01*
X187376610Y-74027409D01*
X187310944Y-73877705D01*
X187300500Y-73827895D01*
X187300500Y-71590047D01*
X187320185Y-71523008D01*
X187336819Y-71502366D01*
X187371966Y-71467219D01*
X187491966Y-71347219D01*
X187491968Y-71347215D01*
X187491971Y-71347213D01*
X187572039Y-71237007D01*
X187612287Y-71181610D01*
X187632290Y-71142352D01*
X187705221Y-70999218D01*
X187768477Y-70804534D01*
X187780041Y-70731523D01*
X187800500Y-70602352D01*
X187800500Y-57172104D01*
X187810944Y-57122294D01*
X187840842Y-57054133D01*
X187876610Y-56972591D01*
X187935620Y-56739563D01*
X187955471Y-56500000D01*
X187955471Y-56499993D01*
X187950064Y-56434740D01*
X187964145Y-56366304D01*
X188012990Y-56316345D01*
X188073640Y-56300500D01*
X190165189Y-56300500D01*
X190232228Y-56320185D01*
X190277983Y-56372989D01*
X190282608Y-56384641D01*
X190370053Y-56642247D01*
X190370062Y-56642268D01*
X190503431Y-56912713D01*
X190503435Y-56912720D01*
X190670973Y-57163459D01*
X190869810Y-57390189D01*
X191096540Y-57589026D01*
X191347279Y-57756564D01*
X191347286Y-57756568D01*
X191617731Y-57889937D01*
X191617736Y-57889939D01*
X191617748Y-57889945D01*
X191903309Y-57986880D01*
X192084935Y-58023008D01*
X192199069Y-58045711D01*
X192199070Y-58045711D01*
X192199080Y-58045713D01*
X192500000Y-58065436D01*
X192800920Y-58045713D01*
X193096691Y-57986880D01*
X193382252Y-57889945D01*
X193652718Y-57756566D01*
X193903461Y-57589025D01*
X193993741Y-57509850D01*
X194057122Y-57480448D01*
X194126339Y-57489980D01*
X194179414Y-57535419D01*
X194199498Y-57602340D01*
X194199500Y-57603079D01*
X194199500Y-58909951D01*
X194179815Y-58976990D01*
X194163181Y-58997632D01*
X194116846Y-59043967D01*
X194055523Y-59077452D01*
X193985831Y-59072468D01*
X193947405Y-59049513D01*
X193903459Y-59010973D01*
X193903460Y-59010973D01*
X193652720Y-58843435D01*
X193652713Y-58843431D01*
X193382268Y-58710062D01*
X193382247Y-58710053D01*
X193096698Y-58613122D01*
X193096692Y-58613120D01*
X193096691Y-58613120D01*
X193096689Y-58613119D01*
X193096683Y-58613118D01*
X192800930Y-58554288D01*
X192800921Y-58554287D01*
X192800920Y-58554287D01*
X192500000Y-58534564D01*
X192199080Y-58554287D01*
X192199079Y-58554287D01*
X192199069Y-58554288D01*
X191903316Y-58613118D01*
X191903301Y-58613122D01*
X191617752Y-58710053D01*
X191617731Y-58710062D01*
X191347286Y-58843431D01*
X191347279Y-58843435D01*
X191096540Y-59010973D01*
X190869810Y-59209810D01*
X190670973Y-59436540D01*
X190503435Y-59687279D01*
X190503431Y-59687286D01*
X190370062Y-59957731D01*
X190370053Y-59957752D01*
X190273122Y-60243301D01*
X190273118Y-60243316D01*
X190214288Y-60539069D01*
X190214287Y-60539079D01*
X190214287Y-60539080D01*
X190194564Y-60840000D01*
X190214259Y-61140500D01*
X190214287Y-61140918D01*
X190214288Y-61140930D01*
X190273118Y-61436683D01*
X190273122Y-61436698D01*
X190370053Y-61722247D01*
X190370062Y-61722268D01*
X190503431Y-61992713D01*
X190503435Y-61992720D01*
X190670973Y-62243459D01*
X190869810Y-62470189D01*
X191096540Y-62669026D01*
X191347279Y-62836564D01*
X191347286Y-62836568D01*
X191617731Y-62969937D01*
X191617736Y-62969939D01*
X191617748Y-62969945D01*
X191903309Y-63066880D01*
X192103251Y-63106651D01*
X192199069Y-63125711D01*
X192199070Y-63125711D01*
X192199080Y-63125713D01*
X192500000Y-63145436D01*
X192800920Y-63125713D01*
X193096691Y-63066880D01*
X193382252Y-62969945D01*
X193652718Y-62836566D01*
X193903461Y-62669025D01*
X194130189Y-62470189D01*
X194329025Y-62243461D01*
X194383721Y-62161600D01*
X194437332Y-62116797D01*
X194459936Y-62110205D01*
X194459795Y-62109615D01*
X194464526Y-62108478D01*
X194464535Y-62108477D01*
X194575915Y-62072287D01*
X194659219Y-62045220D01*
X194786971Y-61980127D01*
X194841611Y-61952287D01*
X195007219Y-61831966D01*
X196491966Y-60347219D01*
X196612287Y-60181611D01*
X196684970Y-60038962D01*
X196705220Y-59999219D01*
X196710447Y-59983131D01*
X196746551Y-59872016D01*
X196752334Y-59854217D01*
X196768477Y-59804535D01*
X196800500Y-59602352D01*
X196800500Y-59397649D01*
X196800500Y-54397648D01*
X196796594Y-54372989D01*
X196768477Y-54195465D01*
X196705218Y-54000776D01*
X196625609Y-53844535D01*
X196612287Y-53818389D01*
X196491966Y-53652781D01*
X194847219Y-52008034D01*
X194681611Y-51887713D01*
X194590414Y-51841246D01*
X194499223Y-51794781D01*
X194452515Y-51779604D01*
X194401876Y-51763151D01*
X194378003Y-51755394D01*
X194304535Y-51731522D01*
X194129995Y-51703878D01*
X194102352Y-51699500D01*
X179397648Y-51699500D01*
X179330254Y-51710174D01*
X179195464Y-51731523D01*
X179000784Y-51794777D01*
X179000781Y-51794778D01*
X178818386Y-51887715D01*
X178652786Y-52008028D01*
X178652782Y-52008032D01*
X178508031Y-52152784D01*
X174582700Y-56078114D01*
X174521377Y-56111599D01*
X174451685Y-56106615D01*
X174395752Y-56064743D01*
X174377736Y-56030690D01*
X174376610Y-56027409D01*
X174280048Y-55807270D01*
X174148572Y-55606033D01*
X174148571Y-55606031D01*
X173985764Y-55429175D01*
X173985759Y-55429171D01*
X173985757Y-55429169D01*
X173796075Y-55281533D01*
X173796069Y-55281529D01*
X173584657Y-55167118D01*
X173584652Y-55167116D01*
X173357300Y-55089066D01*
X173179468Y-55059391D01*
X173120192Y-55049500D01*
X172879808Y-55049500D01*
X172832387Y-55057413D01*
X172642699Y-55089066D01*
X172415347Y-55167116D01*
X172415342Y-55167118D01*
X172203930Y-55281529D01*
X172203924Y-55281533D01*
X172014242Y-55429169D01*
X172014239Y-55429172D01*
X171851430Y-55606029D01*
X171851427Y-55606033D01*
X171719952Y-55807268D01*
X171624936Y-56023883D01*
X171599062Y-56061753D01*
X171497632Y-56163182D01*
X171436312Y-56196666D01*
X171409953Y-56199500D01*
X170482941Y-56199500D01*
X170415902Y-56179815D01*
X170395260Y-56163182D01*
X170392666Y-56160588D01*
X170302262Y-56070184D01*
X170230107Y-56024846D01*
X170149523Y-55974211D01*
X169979254Y-55914631D01*
X169979249Y-55914630D01*
X169844960Y-55899500D01*
X169844954Y-55899500D01*
X168155046Y-55899500D01*
X168155039Y-55899500D01*
X168020750Y-55914630D01*
X168020745Y-55914631D01*
X167850476Y-55974211D01*
X167697739Y-56070183D01*
X167604740Y-56163182D01*
X167543416Y-56196666D01*
X167517059Y-56199500D01*
X164064446Y-56199500D01*
X163997407Y-56179815D01*
X163983915Y-56169791D01*
X163973140Y-56160588D01*
X163751628Y-56024846D01*
X163751627Y-56024845D01*
X163751623Y-56024843D01*
X163585627Y-55956086D01*
X163511610Y-55925427D01*
X163511611Y-55925427D01*
X163373921Y-55892370D01*
X163258994Y-55864779D01*
X163258992Y-55864778D01*
X163258991Y-55864778D01*
X163000000Y-55844396D01*
X162741009Y-55864778D01*
X162488389Y-55925427D01*
X162248376Y-56024843D01*
X162026860Y-56160588D01*
X162016085Y-56169791D01*
X161952323Y-56198361D01*
X161935554Y-56199500D01*
X160750046Y-56199500D01*
X160683007Y-56179815D01*
X160662365Y-56163181D01*
X157782601Y-53283416D01*
X157749708Y-53224681D01*
X157707796Y-53050100D01*
X157707795Y-53050098D01*
X157707793Y-53050088D01*
X157612590Y-52820249D01*
X157612590Y-52820248D01*
X157482608Y-52608138D01*
X157482607Y-52608135D01*
X157446106Y-52565398D01*
X157321038Y-52418962D01*
X157195968Y-52312142D01*
X157131864Y-52257392D01*
X157131861Y-52257391D01*
X156919751Y-52127409D01*
X156689914Y-52032208D01*
X156689916Y-52032208D01*
X156689912Y-52032207D01*
X156689908Y-52032206D01*
X156689902Y-52032204D01*
X156515315Y-51990290D01*
X156456581Y-51957397D01*
X155513221Y-51014036D01*
X155513220Y-51014035D01*
X155513219Y-51014034D01*
X155347611Y-50893713D01*
X155256414Y-50847246D01*
X155165223Y-50800781D01*
X155118515Y-50785604D01*
X155067876Y-50769151D01*
X155020211Y-50753663D01*
X154985641Y-50742431D01*
X154927966Y-50702993D01*
X154900768Y-50638634D01*
X154912683Y-50569788D01*
X154959927Y-50518312D01*
X155023960Y-50500500D01*
X198375500Y-50500500D01*
X198442539Y-50520185D01*
X198488294Y-50572989D01*
X198499500Y-50624500D01*
X198499500Y-149375500D01*
X198479815Y-149442539D01*
X198427011Y-149488294D01*
X198375500Y-149499500D01*
X99624500Y-149499500D01*
X99557461Y-149479815D01*
X99511706Y-149427011D01*
X99500500Y-149375500D01*
X99500500Y-145878711D01*
X101649500Y-145878711D01*
X101649500Y-146121288D01*
X101681161Y-146361785D01*
X101743947Y-146596104D01*
X101836773Y-146820205D01*
X101836776Y-146820212D01*
X101958064Y-147030289D01*
X101958066Y-147030292D01*
X101958067Y-147030293D01*
X102105733Y-147222736D01*
X102105739Y-147222743D01*
X102277256Y-147394260D01*
X102277262Y-147394265D01*
X102469711Y-147541936D01*
X102679788Y-147663224D01*
X102903900Y-147756054D01*
X103138211Y-147818838D01*
X103318586Y-147842584D01*
X103378711Y-147850500D01*
X103378712Y-147850500D01*
X103621289Y-147850500D01*
X103669388Y-147844167D01*
X103861789Y-147818838D01*
X104096100Y-147756054D01*
X104320212Y-147663224D01*
X104530289Y-147541936D01*
X104722738Y-147394265D01*
X104894265Y-147222738D01*
X105041936Y-147030289D01*
X105163224Y-146820212D01*
X105256054Y-146596100D01*
X105318838Y-146361789D01*
X105350500Y-146121288D01*
X105350500Y-145878712D01*
X105350500Y-145878711D01*
X193649500Y-145878711D01*
X193649500Y-146121288D01*
X193681161Y-146361785D01*
X193743947Y-146596104D01*
X193836773Y-146820205D01*
X193836776Y-146820212D01*
X193958064Y-147030289D01*
X193958066Y-147030292D01*
X193958067Y-147030293D01*
X194105733Y-147222736D01*
X194105739Y-147222743D01*
X194277256Y-147394260D01*
X194277262Y-147394265D01*
X194469711Y-147541936D01*
X194679788Y-147663224D01*
X194903900Y-147756054D01*
X195138211Y-147818838D01*
X195318586Y-147842584D01*
X195378711Y-147850500D01*
X195378712Y-147850500D01*
X195621289Y-147850500D01*
X195669388Y-147844167D01*
X195861789Y-147818838D01*
X196096100Y-147756054D01*
X196320212Y-147663224D01*
X196530289Y-147541936D01*
X196722738Y-147394265D01*
X196894265Y-147222738D01*
X197041936Y-147030289D01*
X197163224Y-146820212D01*
X197256054Y-146596100D01*
X197318838Y-146361789D01*
X197350500Y-146121288D01*
X197350500Y-145878712D01*
X197318838Y-145638211D01*
X197256054Y-145403900D01*
X197163224Y-145179788D01*
X197041936Y-144969711D01*
X196894265Y-144777262D01*
X196894260Y-144777256D01*
X196722743Y-144605739D01*
X196722736Y-144605733D01*
X196530293Y-144458067D01*
X196530292Y-144458066D01*
X196530289Y-144458064D01*
X196320212Y-144336776D01*
X196320205Y-144336773D01*
X196096104Y-144243947D01*
X195861785Y-144181161D01*
X195621289Y-144149500D01*
X195621288Y-144149500D01*
X195378712Y-144149500D01*
X195378711Y-144149500D01*
X195138214Y-144181161D01*
X194903895Y-144243947D01*
X194679794Y-144336773D01*
X194679785Y-144336777D01*
X194469706Y-144458067D01*
X194277263Y-144605733D01*
X194277256Y-144605739D01*
X194105739Y-144777256D01*
X194105733Y-144777263D01*
X193958067Y-144969706D01*
X193836777Y-145179785D01*
X193836773Y-145179794D01*
X193743947Y-145403895D01*
X193681161Y-145638214D01*
X193649500Y-145878711D01*
X105350500Y-145878711D01*
X105318838Y-145638211D01*
X105256054Y-145403900D01*
X105163224Y-145179788D01*
X105041936Y-144969711D01*
X104894265Y-144777262D01*
X104894260Y-144777256D01*
X104722743Y-144605739D01*
X104722736Y-144605733D01*
X104530293Y-144458067D01*
X104530292Y-144458066D01*
X104530289Y-144458064D01*
X104320212Y-144336776D01*
X104320205Y-144336773D01*
X104096104Y-144243947D01*
X103861785Y-144181161D01*
X103621289Y-144149500D01*
X103621288Y-144149500D01*
X103378712Y-144149500D01*
X103378711Y-144149500D01*
X103138214Y-144181161D01*
X102903895Y-144243947D01*
X102679794Y-144336773D01*
X102679785Y-144336777D01*
X102469706Y-144458067D01*
X102277263Y-144605733D01*
X102277256Y-144605739D01*
X102105739Y-144777256D01*
X102105733Y-144777263D01*
X101958067Y-144969706D01*
X101836777Y-145179785D01*
X101836773Y-145179794D01*
X101743947Y-145403895D01*
X101681161Y-145638214D01*
X101649500Y-145878711D01*
X99500500Y-145878711D01*
X99500500Y-122154155D01*
X99520185Y-122087116D01*
X99572989Y-122041361D01*
X99642147Y-122031417D01*
X99705703Y-122060442D01*
X99739062Y-122106704D01*
X99753497Y-122141555D01*
X99881998Y-122351249D01*
X99881999Y-122351252D01*
X99882002Y-122351255D01*
X100041729Y-122538271D01*
X100155242Y-122635220D01*
X100228747Y-122698000D01*
X100228750Y-122698001D01*
X100438446Y-122826503D01*
X100438449Y-122826505D01*
X100665663Y-122920619D01*
X100665668Y-122920621D01*
X100904815Y-122978036D01*
X101150000Y-122997332D01*
X101395185Y-122978036D01*
X101634332Y-122920621D01*
X101747943Y-122873562D01*
X101861550Y-122826505D01*
X101861551Y-122826504D01*
X101861554Y-122826503D01*
X102071255Y-122697998D01*
X102258271Y-122538271D01*
X102417998Y-122351255D01*
X102546503Y-122141554D01*
X102560939Y-122106704D01*
X102640619Y-121914336D01*
X102640621Y-121914332D01*
X102698036Y-121675185D01*
X102717332Y-121430000D01*
X107202668Y-121430000D01*
X107221963Y-121675179D01*
X107221963Y-121675182D01*
X107221964Y-121675185D01*
X107263266Y-121847219D01*
X107279380Y-121914336D01*
X107373494Y-122141550D01*
X107373496Y-122141553D01*
X107451227Y-122268397D01*
X107469500Y-122333187D01*
X107469500Y-134017351D01*
X107501522Y-134219534D01*
X107564781Y-134414223D01*
X107611246Y-134505414D01*
X107657713Y-134596611D01*
X107778034Y-134762219D01*
X107778035Y-134762220D01*
X107778036Y-134762221D01*
X109768181Y-136752365D01*
X109801666Y-136813688D01*
X109804500Y-136840046D01*
X109804500Y-139294960D01*
X109819630Y-139429249D01*
X109819631Y-139429254D01*
X109879211Y-139599523D01*
X109975184Y-139752262D01*
X110102738Y-139879816D01*
X110255478Y-139975789D01*
X110425745Y-140035368D01*
X110425750Y-140035369D01*
X110516246Y-140045565D01*
X110560040Y-140050499D01*
X110560043Y-140050500D01*
X110560046Y-140050500D01*
X114149957Y-140050500D01*
X114149958Y-140050499D01*
X114217104Y-140042934D01*
X114284249Y-140035369D01*
X114284252Y-140035368D01*
X114284255Y-140035368D01*
X114454522Y-139975789D01*
X114607262Y-139879816D01*
X114734816Y-139752262D01*
X114830789Y-139599522D01*
X114890368Y-139429255D01*
X114905500Y-139294954D01*
X114905500Y-137378711D01*
X119149500Y-137378711D01*
X119149500Y-137621288D01*
X119181161Y-137861785D01*
X119243947Y-138096104D01*
X119336773Y-138320205D01*
X119336776Y-138320212D01*
X119458064Y-138530289D01*
X119458066Y-138530292D01*
X119458067Y-138530293D01*
X119605733Y-138722736D01*
X119605739Y-138722743D01*
X119777256Y-138894260D01*
X119777262Y-138894265D01*
X119969711Y-139041936D01*
X120179788Y-139163224D01*
X120403900Y-139256054D01*
X120638211Y-139318838D01*
X120818586Y-139342584D01*
X120878711Y-139350500D01*
X120878712Y-139350500D01*
X121121289Y-139350500D01*
X121169388Y-139344167D01*
X121361789Y-139318838D01*
X121596100Y-139256054D01*
X121820212Y-139163224D01*
X122030289Y-139041936D01*
X122222738Y-138894265D01*
X122394265Y-138722738D01*
X122541936Y-138530289D01*
X122663224Y-138320212D01*
X122756054Y-138096100D01*
X122818838Y-137861789D01*
X122850500Y-137621288D01*
X122850500Y-137378712D01*
X122850500Y-137378711D01*
X174759500Y-137378711D01*
X174759500Y-137621288D01*
X174791161Y-137861785D01*
X174853947Y-138096104D01*
X174946773Y-138320205D01*
X174946776Y-138320212D01*
X175068064Y-138530289D01*
X175068066Y-138530292D01*
X175068067Y-138530293D01*
X175215733Y-138722736D01*
X175215739Y-138722743D01*
X175387256Y-138894260D01*
X175387262Y-138894265D01*
X175579711Y-139041936D01*
X175789788Y-139163224D01*
X176013900Y-139256054D01*
X176248211Y-139318838D01*
X176428586Y-139342584D01*
X176488711Y-139350500D01*
X176488712Y-139350500D01*
X176731289Y-139350500D01*
X176779388Y-139344167D01*
X176971789Y-139318838D01*
X177206100Y-139256054D01*
X177430212Y-139163224D01*
X177640289Y-139041936D01*
X177832738Y-138894265D01*
X178004265Y-138722738D01*
X178151936Y-138530289D01*
X178273224Y-138320212D01*
X178366054Y-138096100D01*
X178428838Y-137861789D01*
X178460500Y-137621288D01*
X178460500Y-137378712D01*
X178428838Y-137138211D01*
X178366054Y-136903900D01*
X178273224Y-136679788D01*
X178151936Y-136469711D01*
X178004265Y-136277262D01*
X178004260Y-136277256D01*
X177832743Y-136105739D01*
X177832736Y-136105733D01*
X177640293Y-135958067D01*
X177640292Y-135958066D01*
X177640289Y-135958064D01*
X177430212Y-135836776D01*
X177430205Y-135836773D01*
X177206104Y-135743947D01*
X177088944Y-135712554D01*
X176971789Y-135681162D01*
X176971788Y-135681161D01*
X176971785Y-135681161D01*
X176731289Y-135649500D01*
X176731288Y-135649500D01*
X176488712Y-135649500D01*
X176488711Y-135649500D01*
X176248214Y-135681161D01*
X176013895Y-135743947D01*
X175789794Y-135836773D01*
X175789785Y-135836777D01*
X175579706Y-135958067D01*
X175387263Y-136105733D01*
X175387256Y-136105739D01*
X175215739Y-136277256D01*
X175215733Y-136277263D01*
X175068067Y-136469706D01*
X174946777Y-136679785D01*
X174946773Y-136679794D01*
X174853947Y-136903895D01*
X174791161Y-137138214D01*
X174759500Y-137378711D01*
X122850500Y-137378711D01*
X122818838Y-137138211D01*
X122756054Y-136903900D01*
X122663224Y-136679788D01*
X122541936Y-136469711D01*
X122394265Y-136277262D01*
X122394260Y-136277256D01*
X122222743Y-136105739D01*
X122222736Y-136105733D01*
X122030293Y-135958067D01*
X122030292Y-135958066D01*
X122030289Y-135958064D01*
X121820212Y-135836776D01*
X121820205Y-135836773D01*
X121596104Y-135743947D01*
X121478944Y-135712554D01*
X121361789Y-135681162D01*
X121361788Y-135681161D01*
X121361785Y-135681161D01*
X121121289Y-135649500D01*
X121121288Y-135649500D01*
X120878712Y-135649500D01*
X120878711Y-135649500D01*
X120638214Y-135681161D01*
X120403895Y-135743947D01*
X120179794Y-135836773D01*
X120179785Y-135836777D01*
X119969706Y-135958067D01*
X119777263Y-136105733D01*
X119777256Y-136105739D01*
X119605739Y-136277256D01*
X119605733Y-136277263D01*
X119458067Y-136469706D01*
X119336777Y-136679785D01*
X119336773Y-136679794D01*
X119243947Y-136903895D01*
X119181161Y-137138214D01*
X119149500Y-137378711D01*
X114905500Y-137378711D01*
X114905500Y-135705046D01*
X114890368Y-135570745D01*
X114830789Y-135400478D01*
X114734816Y-135247738D01*
X114607262Y-135120184D01*
X114454523Y-135024211D01*
X114284254Y-134964631D01*
X114284249Y-134964630D01*
X114149960Y-134949500D01*
X114149954Y-134949500D01*
X111695046Y-134949500D01*
X111628007Y-134929815D01*
X111607365Y-134913181D01*
X110106819Y-133412634D01*
X110073334Y-133351311D01*
X110070500Y-133324953D01*
X110070500Y-122333187D01*
X110088773Y-122268397D01*
X110166503Y-122141554D01*
X110180939Y-122106704D01*
X110260619Y-121914336D01*
X110260621Y-121914332D01*
X110318036Y-121675185D01*
X110337332Y-121430000D01*
X110318036Y-121184815D01*
X110260621Y-120945668D01*
X110212613Y-120829765D01*
X110166505Y-120718449D01*
X110166503Y-120718446D01*
X110038001Y-120508750D01*
X110038000Y-120508747D01*
X109919041Y-120369465D01*
X109878271Y-120321729D01*
X109717816Y-120184687D01*
X109691252Y-120161999D01*
X109691249Y-120161998D01*
X109481553Y-120033496D01*
X109481550Y-120033494D01*
X109254336Y-119939380D01*
X109218819Y-119930853D01*
X109015185Y-119881964D01*
X109015182Y-119881963D01*
X109015179Y-119881963D01*
X108770000Y-119862668D01*
X108524820Y-119881963D01*
X108524816Y-119881963D01*
X108524815Y-119881964D01*
X108405241Y-119910671D01*
X108285663Y-119939380D01*
X108058449Y-120033494D01*
X108058446Y-120033496D01*
X107848750Y-120161998D01*
X107848747Y-120161999D01*
X107661729Y-120321729D01*
X107501999Y-120508747D01*
X107501998Y-120508750D01*
X107373496Y-120718446D01*
X107373494Y-120718449D01*
X107279380Y-120945663D01*
X107221963Y-121184820D01*
X107202668Y-121430000D01*
X102717332Y-121430000D01*
X102698036Y-121184815D01*
X102640621Y-120945668D01*
X102592613Y-120829765D01*
X102546505Y-120718449D01*
X102546503Y-120718446D01*
X102468773Y-120591601D01*
X102450500Y-120526811D01*
X102450500Y-108424500D01*
X102470185Y-108357461D01*
X102522989Y-108311706D01*
X102574500Y-108300500D01*
X115102351Y-108300500D01*
X115102352Y-108300500D01*
X115304534Y-108268477D01*
X115499219Y-108205220D01*
X115681610Y-108112287D01*
X115774590Y-108044732D01*
X115847213Y-107991971D01*
X115847215Y-107991968D01*
X115847219Y-107991966D01*
X115991966Y-107847219D01*
X115991968Y-107847215D01*
X115991971Y-107847213D01*
X116044732Y-107774590D01*
X116112287Y-107681610D01*
X116205220Y-107499219D01*
X116268477Y-107304534D01*
X116300500Y-107102352D01*
X116300500Y-90440148D01*
X116294788Y-90404085D01*
X116268477Y-90237965D01*
X116205218Y-90043276D01*
X116126976Y-89889719D01*
X116126976Y-89889718D01*
X116112290Y-89860894D01*
X116112288Y-89860891D01*
X116112287Y-89860889D01*
X116074180Y-89808439D01*
X116050702Y-89742634D01*
X116050500Y-89735556D01*
X116050500Y-87247543D01*
X116050499Y-87247539D01*
X116035369Y-87113250D01*
X116035368Y-87113245D01*
X115975789Y-86942978D01*
X115879816Y-86790238D01*
X115752262Y-86662684D01*
X115599523Y-86566711D01*
X115429254Y-86507131D01*
X115429249Y-86507130D01*
X115294960Y-86492000D01*
X115294954Y-86492000D01*
X111705046Y-86492000D01*
X111705039Y-86492000D01*
X111570750Y-86507130D01*
X111570745Y-86507131D01*
X111400476Y-86566711D01*
X111247737Y-86662684D01*
X111120184Y-86790237D01*
X111024211Y-86942976D01*
X110964631Y-87113245D01*
X110964630Y-87113250D01*
X110949500Y-87247539D01*
X110949500Y-90837460D01*
X110964630Y-90971749D01*
X110964631Y-90971754D01*
X111024211Y-91142023D01*
X111120184Y-91294762D01*
X111247738Y-91422316D01*
X111400478Y-91518289D01*
X111570745Y-91577868D01*
X111570750Y-91577869D01*
X111661246Y-91588065D01*
X111705040Y-91592999D01*
X111705043Y-91593000D01*
X111705046Y-91593000D01*
X113575500Y-91593000D01*
X113642539Y-91612685D01*
X113688294Y-91665489D01*
X113699500Y-91717000D01*
X113699500Y-105575500D01*
X113679815Y-105642539D01*
X113627011Y-105688294D01*
X113575500Y-105699500D01*
X101397648Y-105699500D01*
X101330254Y-105710174D01*
X101195464Y-105731523D01*
X101000784Y-105794777D01*
X101000781Y-105794778D01*
X100818386Y-105887715D01*
X100652786Y-106008028D01*
X100158036Y-106502778D01*
X100158031Y-106502784D01*
X100037716Y-106668384D01*
X100037708Y-106668396D01*
X100023918Y-106695464D01*
X100023917Y-106695466D01*
X99944781Y-106850776D01*
X99881522Y-107045465D01*
X99849500Y-107247648D01*
X99849500Y-120526811D01*
X99831227Y-120591601D01*
X99753496Y-120718446D01*
X99753494Y-120718449D01*
X99739061Y-120753296D01*
X99695220Y-120807700D01*
X99628926Y-120829765D01*
X99561227Y-120812486D01*
X99513616Y-120761349D01*
X99500500Y-120705844D01*
X99500500Y-50624500D01*
X99520185Y-50557461D01*
X99572989Y-50511706D01*
X99624500Y-50500500D01*
X129596041Y-50500500D01*
X129663080Y-50520185D01*
G37*
%TD.AperFunction*%
%TA.AperFunction,Conductor*%
G36*
X177553260Y-69620185D02*
G01*
X177599015Y-69672989D01*
X177608959Y-69742147D01*
X177591948Y-69789290D01*
X177529533Y-69891140D01*
X177433126Y-70123889D01*
X177374317Y-70368848D01*
X177354551Y-70620000D01*
X177374317Y-70871151D01*
X177433126Y-71116110D01*
X177529533Y-71348859D01*
X177641227Y-71531124D01*
X177659500Y-71595914D01*
X177659500Y-74357648D01*
X177659500Y-74562352D01*
X177691523Y-74764535D01*
X177693431Y-74770409D01*
X177699500Y-74808724D01*
X177699500Y-76102351D01*
X177731522Y-76304534D01*
X177794782Y-76499226D01*
X177804963Y-76519206D01*
X177817859Y-76587875D01*
X177791582Y-76652616D01*
X177734475Y-76692872D01*
X177694478Y-76699500D01*
X172764500Y-76699500D01*
X172697461Y-76679815D01*
X172651706Y-76627011D01*
X172640500Y-76575500D01*
X172640500Y-71595914D01*
X172658773Y-71531124D01*
X172770466Y-71348859D01*
X172839741Y-71181613D01*
X172866873Y-71116111D01*
X172925683Y-70871148D01*
X172945449Y-70620000D01*
X172925683Y-70368852D01*
X172866873Y-70123889D01*
X172770466Y-69891140D01*
X172708052Y-69789290D01*
X172689807Y-69721844D01*
X172710923Y-69655242D01*
X172764695Y-69610628D01*
X172813779Y-69600500D01*
X177486221Y-69600500D01*
X177553260Y-69620185D01*
G37*
%TD.AperFunction*%
%TA.AperFunction,Conductor*%
G36*
X105330595Y-57315445D02*
G01*
X105382966Y-57343786D01*
X105405267Y-57355855D01*
X105405270Y-57355856D01*
X105636541Y-57435251D01*
X105636543Y-57435251D01*
X105636545Y-57435252D01*
X105877737Y-57475500D01*
X105877738Y-57475500D01*
X106122262Y-57475500D01*
X106122263Y-57475500D01*
X106363455Y-57435252D01*
X106594733Y-57355855D01*
X106655697Y-57322863D01*
X106669405Y-57315445D01*
X106728422Y-57300500D01*
X110771578Y-57300500D01*
X110830595Y-57315445D01*
X110882966Y-57343786D01*
X110905267Y-57355855D01*
X110905270Y-57355856D01*
X111136541Y-57435251D01*
X111136543Y-57435251D01*
X111136545Y-57435252D01*
X111377737Y-57475500D01*
X111377738Y-57475500D01*
X111622262Y-57475500D01*
X111622263Y-57475500D01*
X111863455Y-57435252D01*
X112094733Y-57355855D01*
X112155697Y-57322863D01*
X112169405Y-57315445D01*
X112228422Y-57300500D01*
X116771578Y-57300500D01*
X116830595Y-57315445D01*
X116882966Y-57343786D01*
X116905267Y-57355855D01*
X116905270Y-57355856D01*
X117136541Y-57435251D01*
X117136543Y-57435251D01*
X117136545Y-57435252D01*
X117377737Y-57475500D01*
X117377738Y-57475500D01*
X117622262Y-57475500D01*
X117622263Y-57475500D01*
X117863455Y-57435252D01*
X118094733Y-57355855D01*
X118155697Y-57322863D01*
X118169405Y-57315445D01*
X118228422Y-57300500D01*
X118909953Y-57300500D01*
X118976992Y-57320185D01*
X118997634Y-57336819D01*
X120464908Y-58804092D01*
X120464922Y-58804107D01*
X120468033Y-58807218D01*
X120468034Y-58807219D01*
X120612781Y-58951966D01*
X120759784Y-59058768D01*
X120759785Y-59058770D01*
X120772412Y-59067944D01*
X120778390Y-59072287D01*
X120866040Y-59116947D01*
X120960781Y-59165221D01*
X120960784Y-59165222D01*
X121122996Y-59217927D01*
X121155466Y-59228477D01*
X121357648Y-59260500D01*
X121357649Y-59260500D01*
X121562352Y-59260500D01*
X122263438Y-59260500D01*
X122330477Y-59280185D01*
X122376232Y-59332989D01*
X122386176Y-59402147D01*
X122380479Y-59425455D01*
X122364633Y-59470737D01*
X122364630Y-59470750D01*
X122349500Y-59605039D01*
X122349500Y-61394960D01*
X122364630Y-61529249D01*
X122364631Y-61529254D01*
X122424211Y-61699523D01*
X122482647Y-61792522D01*
X122520184Y-61852262D01*
X122647738Y-61979816D01*
X122668275Y-61992720D01*
X122794907Y-62072289D01*
X122800478Y-62075789D01*
X122916835Y-62116504D01*
X122970745Y-62135368D01*
X122970750Y-62135369D01*
X123061246Y-62145565D01*
X123105040Y-62150499D01*
X123105043Y-62150500D01*
X123105046Y-62150500D01*
X124894957Y-62150500D01*
X124894958Y-62150499D01*
X124962104Y-62142934D01*
X125029249Y-62135369D01*
X125029252Y-62135368D01*
X125029255Y-62135368D01*
X125199522Y-62075789D01*
X125352262Y-61979816D01*
X125479816Y-61852262D01*
X125575789Y-61699522D01*
X125581379Y-61683545D01*
X125622100Y-61626770D01*
X125687053Y-61601022D01*
X125698421Y-61600500D01*
X129188886Y-61600500D01*
X129255925Y-61620185D01*
X129301680Y-61672989D01*
X129303441Y-61677035D01*
X129306139Y-61683546D01*
X129387409Y-61879751D01*
X129517391Y-62091861D01*
X129517392Y-62091864D01*
X129517395Y-62091867D01*
X129678962Y-62281038D01*
X129742975Y-62335710D01*
X129781168Y-62394217D01*
X129781666Y-62464085D01*
X129744313Y-62523131D01*
X129742999Y-62524268D01*
X129678962Y-62578962D01*
X129517392Y-62768135D01*
X129517391Y-62768138D01*
X129387409Y-62980248D01*
X129292208Y-63210085D01*
X129292203Y-63210100D01*
X129269554Y-63304446D01*
X129234764Y-63365038D01*
X129172738Y-63397203D01*
X129148980Y-63399500D01*
X118724500Y-63399500D01*
X118657461Y-63379815D01*
X118611706Y-63327011D01*
X118600500Y-63275500D01*
X118600500Y-61421580D01*
X118620185Y-61354541D01*
X118658527Y-61316587D01*
X118677262Y-61304816D01*
X118804816Y-61177262D01*
X118900789Y-61024522D01*
X118960368Y-60854255D01*
X118975500Y-60719954D01*
X118975500Y-59280046D01*
X118968501Y-59217927D01*
X118960369Y-59145750D01*
X118960368Y-59145745D01*
X118943930Y-59098768D01*
X118900789Y-58975478D01*
X118898903Y-58972477D01*
X118836391Y-58872989D01*
X118804816Y-58822738D01*
X118677262Y-58695184D01*
X118524523Y-58599211D01*
X118354254Y-58539631D01*
X118354249Y-58539630D01*
X118219960Y-58524500D01*
X118219954Y-58524500D01*
X116780046Y-58524500D01*
X116780039Y-58524500D01*
X116645750Y-58539630D01*
X116645745Y-58539631D01*
X116475476Y-58599211D01*
X116322737Y-58695184D01*
X116195184Y-58822737D01*
X116099211Y-58975476D01*
X116039631Y-59145745D01*
X116039630Y-59145750D01*
X116024500Y-59280039D01*
X116024500Y-60719960D01*
X116039630Y-60854249D01*
X116039631Y-60854254D01*
X116099211Y-61024523D01*
X116184454Y-61160185D01*
X116195184Y-61177262D01*
X116322738Y-61304816D01*
X116341471Y-61316586D01*
X116387761Y-61368917D01*
X116399500Y-61421580D01*
X116399500Y-64413389D01*
X116399500Y-64586611D01*
X116402484Y-64605449D01*
X116424971Y-64747432D01*
X116426598Y-64757701D01*
X116480127Y-64922445D01*
X116558768Y-65076788D01*
X116660586Y-65216928D01*
X116783072Y-65339414D01*
X116923212Y-65441232D01*
X117077555Y-65519873D01*
X117242299Y-65573402D01*
X117413389Y-65600500D01*
X129170826Y-65600500D01*
X129237865Y-65620185D01*
X129283620Y-65672989D01*
X129293564Y-65742147D01*
X129291400Y-65753446D01*
X129251415Y-65920000D01*
X129234132Y-65991991D01*
X129217503Y-66203275D01*
X129215721Y-66225921D01*
X129190837Y-66291209D01*
X129179784Y-66303872D01*
X128694477Y-66789181D01*
X128633154Y-66822666D01*
X128606796Y-66825500D01*
X117933204Y-66825500D01*
X117866165Y-66805815D01*
X117845523Y-66789181D01*
X112636819Y-61580477D01*
X112603334Y-61519154D01*
X112600500Y-61492796D01*
X112600500Y-61421580D01*
X112620185Y-61354541D01*
X112658527Y-61316587D01*
X112677262Y-61304816D01*
X112804816Y-61177262D01*
X112900789Y-61024522D01*
X112960368Y-60854255D01*
X112975500Y-60719954D01*
X112975500Y-59280046D01*
X112968501Y-59217927D01*
X112960369Y-59145750D01*
X112960368Y-59145745D01*
X112943930Y-59098768D01*
X112900789Y-58975478D01*
X112898903Y-58972477D01*
X112836391Y-58872989D01*
X112804816Y-58822738D01*
X112677262Y-58695184D01*
X112524523Y-58599211D01*
X112354254Y-58539631D01*
X112354249Y-58539630D01*
X112219960Y-58524500D01*
X112219954Y-58524500D01*
X110780046Y-58524500D01*
X110780039Y-58524500D01*
X110645750Y-58539630D01*
X110645745Y-58539631D01*
X110475476Y-58599211D01*
X110322737Y-58695184D01*
X110195184Y-58822737D01*
X110099211Y-58975476D01*
X110039631Y-59145745D01*
X110039630Y-59145750D01*
X110024500Y-59280039D01*
X110024500Y-60719960D01*
X110039630Y-60854249D01*
X110039631Y-60854254D01*
X110099211Y-61024523D01*
X110184454Y-61160185D01*
X110195184Y-61177262D01*
X110322738Y-61304816D01*
X110341471Y-61316586D01*
X110387761Y-61368917D01*
X110399500Y-61421580D01*
X110399500Y-61543796D01*
X110379815Y-61610835D01*
X110327011Y-61656590D01*
X110257853Y-61666534D01*
X110194297Y-61637509D01*
X110187819Y-61631477D01*
X107716930Y-59160588D01*
X107716928Y-59160586D01*
X107613400Y-59085368D01*
X107576786Y-59058766D01*
X107425380Y-58981622D01*
X107376680Y-58937109D01*
X107333263Y-58868012D01*
X107304816Y-58822738D01*
X107177262Y-58695184D01*
X107024523Y-58599211D01*
X106854254Y-58539631D01*
X106854249Y-58539630D01*
X106719960Y-58524500D01*
X106719954Y-58524500D01*
X105280046Y-58524500D01*
X105280039Y-58524500D01*
X105145750Y-58539630D01*
X105145745Y-58539631D01*
X104975476Y-58599211D01*
X104822737Y-58695184D01*
X104695184Y-58822737D01*
X104599211Y-58975476D01*
X104539631Y-59145745D01*
X104539630Y-59145750D01*
X104524500Y-59280039D01*
X104524500Y-60719960D01*
X104539630Y-60854249D01*
X104539631Y-60854254D01*
X104599211Y-61024523D01*
X104684454Y-61160185D01*
X104695184Y-61177262D01*
X104822738Y-61304816D01*
X104841467Y-61316584D01*
X104973426Y-61399500D01*
X104975478Y-61400789D01*
X105046607Y-61425678D01*
X105145745Y-61460368D01*
X105145750Y-61460369D01*
X105236246Y-61470565D01*
X105280040Y-61475499D01*
X105280043Y-61475500D01*
X105280046Y-61475500D01*
X106719957Y-61475500D01*
X106719957Y-61475499D01*
X106839646Y-61462014D01*
X106908468Y-61474068D01*
X106941211Y-61497553D01*
X115660586Y-70216928D01*
X115783072Y-70339414D01*
X115923212Y-70441232D01*
X116077555Y-70519873D01*
X116242299Y-70573402D01*
X116413389Y-70600500D01*
X129201727Y-70600500D01*
X129268766Y-70620185D01*
X129314521Y-70672989D01*
X129324465Y-70742147D01*
X129316289Y-70771949D01*
X129299499Y-70812481D01*
X129292208Y-70830085D01*
X129292204Y-70830097D01*
X129234132Y-71071987D01*
X129214613Y-71320000D01*
X129234132Y-71568012D01*
X129292204Y-71809902D01*
X129292206Y-71809908D01*
X129292207Y-71809912D01*
X129297357Y-71822346D01*
X129387409Y-72039751D01*
X129517391Y-72251861D01*
X129517392Y-72251864D01*
X129528146Y-72264455D01*
X129678962Y-72441038D01*
X129742975Y-72495710D01*
X129781168Y-72554217D01*
X129781666Y-72624085D01*
X129744313Y-72683131D01*
X129742999Y-72684268D01*
X129678962Y-72738962D01*
X129517392Y-72928135D01*
X129517391Y-72928138D01*
X129387413Y-73140241D01*
X129387410Y-73140249D01*
X129373247Y-73174440D01*
X129329407Y-73228841D01*
X129263113Y-73250905D01*
X129195413Y-73233625D01*
X129171007Y-73214665D01*
X128616930Y-72660588D01*
X128616928Y-72660586D01*
X128476788Y-72558768D01*
X128322445Y-72480127D01*
X128157701Y-72426598D01*
X128157699Y-72426597D01*
X128157698Y-72426597D01*
X128026271Y-72405781D01*
X127986611Y-72399500D01*
X127986610Y-72399500D01*
X111532204Y-72399500D01*
X111465165Y-72379815D01*
X111444523Y-72363181D01*
X107713783Y-68632441D01*
X107680298Y-68571118D01*
X107677846Y-68535034D01*
X107680604Y-68500000D01*
X107660221Y-68241006D01*
X107599573Y-67988390D01*
X107500425Y-67749026D01*
X107500156Y-67748376D01*
X107456370Y-67676924D01*
X107364412Y-67526860D01*
X107195689Y-67329311D01*
X106998140Y-67160588D01*
X106776628Y-67024846D01*
X106776627Y-67024845D01*
X106776623Y-67024843D01*
X106610627Y-66956086D01*
X106536610Y-66925427D01*
X106536611Y-66925427D01*
X106319861Y-66873390D01*
X106283994Y-66864779D01*
X106283992Y-66864778D01*
X106283991Y-66864778D01*
X106025000Y-66844396D01*
X105766009Y-66864778D01*
X105513389Y-66925427D01*
X105273376Y-67024843D01*
X105051859Y-67160588D01*
X104854311Y-67329311D01*
X104685588Y-67526859D01*
X104549843Y-67748376D01*
X104450427Y-67988389D01*
X104389778Y-68241009D01*
X104369396Y-68500000D01*
X104389778Y-68758990D01*
X104450427Y-69011610D01*
X104549843Y-69251623D01*
X104549845Y-69251627D01*
X104549846Y-69251628D01*
X104685588Y-69473140D01*
X104854311Y-69670689D01*
X104860193Y-69675712D01*
X104898383Y-69734219D01*
X104898881Y-69804087D01*
X104861526Y-69863132D01*
X104860256Y-69864232D01*
X104854311Y-69869311D01*
X104854309Y-69869313D01*
X104685588Y-70066859D01*
X104549843Y-70288376D01*
X104450427Y-70528389D01*
X104389778Y-70781009D01*
X104369396Y-71040000D01*
X104384900Y-71237007D01*
X104370535Y-71305384D01*
X104321484Y-71355140D01*
X104253319Y-71370479D01*
X104187682Y-71346530D01*
X104173601Y-71334416D01*
X103836819Y-70997634D01*
X103803334Y-70936311D01*
X103800500Y-70909953D01*
X103800500Y-58090047D01*
X103820185Y-58023008D01*
X103836819Y-58002366D01*
X104502366Y-57336819D01*
X104563689Y-57303334D01*
X104590047Y-57300500D01*
X105271578Y-57300500D01*
X105330595Y-57315445D01*
G37*
%TD.AperFunction*%
%TA.AperFunction,Conductor*%
G36*
X184127993Y-54320185D02*
G01*
X184173748Y-54372989D01*
X184183692Y-54442147D01*
X184154667Y-54505703D01*
X184148635Y-54512181D01*
X177968036Y-60692778D01*
X177968031Y-60692784D01*
X177847713Y-60858387D01*
X177847710Y-60858393D01*
X177833024Y-60887218D01*
X177833024Y-60887219D01*
X177754332Y-61041658D01*
X177753272Y-61045420D01*
X177691522Y-61235468D01*
X177687015Y-61263926D01*
X177659500Y-61437648D01*
X177659500Y-62024084D01*
X177641227Y-62088874D01*
X177529533Y-62271140D01*
X177433126Y-62503889D01*
X177374317Y-62748848D01*
X177354551Y-63000000D01*
X177374317Y-63251151D01*
X177433126Y-63496110D01*
X177529533Y-63728859D01*
X177661160Y-63943653D01*
X177661161Y-63943656D01*
X177692311Y-63980128D01*
X177824776Y-64135224D01*
X177888810Y-64189914D01*
X178016343Y-64298838D01*
X178016346Y-64298839D01*
X178231140Y-64430466D01*
X178438940Y-64516539D01*
X178463889Y-64526873D01*
X178708852Y-64585683D01*
X178960000Y-64605449D01*
X179211148Y-64585683D01*
X179456111Y-64526873D01*
X179688859Y-64430466D01*
X179903659Y-64298836D01*
X180095224Y-64135224D01*
X180135710Y-64087819D01*
X180194216Y-64049627D01*
X180264084Y-64049128D01*
X180323130Y-64086482D01*
X180324235Y-64087756D01*
X180364775Y-64135223D01*
X180364776Y-64135224D01*
X180556343Y-64298838D01*
X180556346Y-64298839D01*
X180771140Y-64430466D01*
X180978940Y-64516539D01*
X181003889Y-64526873D01*
X181248852Y-64585683D01*
X181260631Y-64586610D01*
X181285228Y-64588546D01*
X181350517Y-64613430D01*
X181391988Y-64669661D01*
X181399500Y-64712164D01*
X181399500Y-65275500D01*
X181379815Y-65342539D01*
X181327011Y-65388294D01*
X181275500Y-65399500D01*
X169456204Y-65399500D01*
X169389165Y-65379815D01*
X169343410Y-65327011D01*
X169333466Y-65257853D01*
X169362491Y-65194297D01*
X169368523Y-65187819D01*
X169492051Y-65064291D01*
X169639414Y-64916928D01*
X169741232Y-64776788D01*
X169819873Y-64622445D01*
X169873402Y-64457701D01*
X169900500Y-64286611D01*
X169900500Y-64221310D01*
X169920185Y-64154271D01*
X169932348Y-64139176D01*
X169932059Y-64138929D01*
X169935221Y-64135226D01*
X169935224Y-64135224D01*
X169975710Y-64087819D01*
X170034216Y-64049627D01*
X170104084Y-64049128D01*
X170163130Y-64086482D01*
X170164235Y-64087756D01*
X170204775Y-64135223D01*
X170204776Y-64135224D01*
X170396343Y-64298838D01*
X170396346Y-64298839D01*
X170611140Y-64430466D01*
X170818940Y-64516539D01*
X170843889Y-64526873D01*
X171088852Y-64585683D01*
X171340000Y-64605449D01*
X171591148Y-64585683D01*
X171836111Y-64526873D01*
X172068859Y-64430466D01*
X172283659Y-64298836D01*
X172475224Y-64135224D01*
X172638836Y-63943659D01*
X172770466Y-63728859D01*
X172866873Y-63496111D01*
X172925683Y-63251148D01*
X172945449Y-63000000D01*
X172925683Y-62748852D01*
X172866873Y-62503889D01*
X172852914Y-62470189D01*
X172770466Y-62271140D01*
X172658773Y-62088874D01*
X172640500Y-62024084D01*
X172640500Y-61750046D01*
X172660185Y-61683007D01*
X172676819Y-61662365D01*
X180002365Y-54336819D01*
X180063688Y-54303334D01*
X180090046Y-54300500D01*
X184060954Y-54300500D01*
X184127993Y-54320185D01*
G37*
%TD.AperFunction*%
%TD*%
M02*
