%TF.GenerationSoftware,KiCad,Pcbnew,8.0.4*%
%TF.CreationDate,2024-09-04T16:44:11-05:00*%
%TF.ProjectId,PCB_CARRO_PROYECTO,5043425f-4341-4525-924f-5f50524f5945,rev?*%
%TF.SameCoordinates,Original*%
%TF.FileFunction,Soldermask,Top*%
%TF.FilePolarity,Negative*%
%FSLAX46Y46*%
G04 Gerber Fmt 4.6, Leading zero omitted, Abs format (unit mm)*
G04 Created by KiCad (PCBNEW 8.0.4) date 2024-09-04 16:44:11*
%MOMM*%
%LPD*%
G01*
G04 APERTURE LIST*
G04 Aperture macros list*
%AMRoundRect*
0 Rectangle with rounded corners*
0 $1 Rounding radius*
0 $2 $3 $4 $5 $6 $7 $8 $9 X,Y pos of 4 corners*
0 Add a 4 corners polygon primitive as box body*
4,1,4,$2,$3,$4,$5,$6,$7,$8,$9,$2,$3,0*
0 Add four circle primitives for the rounded corners*
1,1,$1+$1,$2,$3*
1,1,$1+$1,$4,$5*
1,1,$1+$1,$6,$7*
1,1,$1+$1,$8,$9*
0 Add four rect primitives between the rounded corners*
20,1,$1+$1,$2,$3,$4,$5,0*
20,1,$1+$1,$4,$5,$6,$7,0*
20,1,$1+$1,$6,$7,$8,$9,0*
20,1,$1+$1,$8,$9,$2,$3,0*%
G04 Aperture macros list end*
%ADD10RoundRect,0.102000X0.649000X-0.649000X0.649000X0.649000X-0.649000X0.649000X-0.649000X-0.649000X0*%
%ADD11C,1.502000*%
%ADD12RoundRect,0.102000X0.780000X0.780000X-0.780000X0.780000X-0.780000X-0.780000X0.780000X-0.780000X0*%
%ADD13C,1.764000*%
%ADD14R,3.000000X3.000000*%
%ADD15C,3.000000*%
%ADD16R,3.500000X3.500000*%
%ADD17RoundRect,0.750000X-0.750000X-1.000000X0.750000X-1.000000X0.750000X1.000000X-0.750000X1.000000X0*%
%ADD18RoundRect,0.875000X-0.875000X-0.875000X0.875000X-0.875000X0.875000X0.875000X-0.875000X0.875000X0*%
%ADD19R,1.600000X1.600000*%
%ADD20C,1.600000*%
%ADD21R,1.350000X1.350000*%
%ADD22O,1.350000X1.350000*%
%ADD23R,2.200000X2.200000*%
%ADD24O,2.200000X2.200000*%
%ADD25R,1.700000X1.700000*%
%ADD26O,1.700000X1.700000*%
%ADD27C,3.200000*%
%ADD28C,3.500000*%
%ADD29C,1.524000*%
%ADD30O,1.600000X1.600000*%
%ADD31C,2.000000*%
%ADD32RoundRect,0.102000X0.990000X-0.990000X0.990000X0.990000X-0.990000X0.990000X-0.990000X-0.990000X0*%
%ADD33C,2.184000*%
%ADD34C,2.139000*%
G04 APERTURE END LIST*
D10*
%TO.C,Q1*%
X193531000Y-121577500D03*
D11*
X193531000Y-119037500D03*
X193531000Y-116497500D03*
%TD*%
D12*
%TO.C,U1*%
X156200000Y-99260000D03*
D13*
X156200000Y-96720000D03*
X156200000Y-94180000D03*
X156200000Y-91640000D03*
X156200000Y-89100000D03*
X156200000Y-86560000D03*
X156200000Y-84020000D03*
X156200000Y-81480000D03*
X156200000Y-78940000D03*
X156200000Y-76400000D03*
X156200000Y-73860000D03*
X156200000Y-71320000D03*
X156200000Y-68780000D03*
X156200000Y-66240000D03*
X156200000Y-63700000D03*
X156200000Y-61160000D03*
X156200000Y-58620000D03*
X156200000Y-56080000D03*
X156200000Y-53540000D03*
X130800000Y-99260000D03*
X130800000Y-96720000D03*
X130800000Y-94180000D03*
X130800000Y-91640000D03*
X130800000Y-89100000D03*
X130800000Y-86560000D03*
X130800000Y-84020000D03*
X130800000Y-81480000D03*
X130800000Y-78940000D03*
X130800000Y-76400000D03*
X130800000Y-73860000D03*
X130800000Y-71320000D03*
X130800000Y-68780000D03*
X130800000Y-66240000D03*
X130800000Y-63700000D03*
X130800000Y-61160000D03*
X130800000Y-58620000D03*
X130800000Y-56080000D03*
X130800000Y-53540000D03*
%TD*%
D14*
%TO.C,J5*%
X192500000Y-71000000D03*
D15*
X192500000Y-65920000D03*
X192500000Y-60840000D03*
X192500000Y-55760000D03*
%TD*%
D16*
%TO.C,J4*%
X113500000Y-89042500D03*
D17*
X107500000Y-89042500D03*
D18*
X110500000Y-93742500D03*
%TD*%
D19*
%TO.C,C1*%
X169000000Y-57500000D03*
D20*
X169000000Y-55000000D03*
%TD*%
D21*
%TO.C,J8*%
X111500000Y-60000000D03*
D22*
X111500000Y-58000000D03*
X111500000Y-56000000D03*
%TD*%
D23*
%TO.C,D1*%
X175840000Y-111000000D03*
D24*
X186000000Y-111000000D03*
%TD*%
D25*
%TO.C,J1*%
X124000000Y-60500000D03*
D26*
X124000000Y-57960000D03*
X124000000Y-55420000D03*
%TD*%
D25*
%TO.C,J2*%
X163000000Y-60040000D03*
D26*
X163000000Y-57500000D03*
X163000000Y-54960000D03*
%TD*%
D14*
%TO.C,J6*%
X194500000Y-99040000D03*
D15*
X194500000Y-93960000D03*
%TD*%
D27*
%TO.C,BT1*%
X121000000Y-137500000D03*
X176610000Y-137500000D03*
D16*
X112355000Y-137500000D03*
D28*
X184355000Y-137500000D03*
%TD*%
D25*
%TO.C,J3*%
X106025000Y-65960000D03*
D26*
X106025000Y-68500000D03*
X106025000Y-71040000D03*
X106025000Y-73580000D03*
%TD*%
D29*
%TO.C,U3*%
X101150000Y-121430000D03*
X103690000Y-121430000D03*
X106230000Y-121430000D03*
X108770000Y-121430000D03*
X111310000Y-121430000D03*
X113850000Y-121430000D03*
%TD*%
D21*
%TO.C,J9*%
X117500000Y-60000000D03*
D22*
X117500000Y-58000000D03*
X117500000Y-56000000D03*
%TD*%
D19*
%TO.C,U2*%
X184040000Y-63000000D03*
D30*
X181500000Y-63000000D03*
X178960000Y-63000000D03*
X176420000Y-63000000D03*
X173880000Y-63000000D03*
X171340000Y-63000000D03*
X168800000Y-63000000D03*
X166260000Y-63000000D03*
X166260000Y-70620000D03*
X168800000Y-70620000D03*
X171340000Y-70620000D03*
X173880000Y-70620000D03*
X176420000Y-70620000D03*
X178960000Y-70620000D03*
X181500000Y-70620000D03*
X184040000Y-70620000D03*
%TD*%
D31*
%TO.C,R1*%
X168500000Y-119000000D03*
X177500000Y-119000000D03*
%TD*%
D27*
%TO.C,*%
X195500000Y-146000000D03*
%TD*%
D32*
%TO.C,K1*%
X174000000Y-103000000D03*
D33*
X186000000Y-103000000D03*
D34*
X180000000Y-105000000D03*
D33*
X174000000Y-90800000D03*
X186000000Y-90800000D03*
%TD*%
D27*
%TO.C,*%
X193500000Y-84500000D03*
%TD*%
%TO.C,REF\u002A\u002A*%
X103500000Y-146000000D03*
%TD*%
D21*
%TO.C,J7*%
X106000000Y-60000000D03*
D22*
X106000000Y-58000000D03*
X106000000Y-56000000D03*
%TD*%
M02*
